<svg width="62" height="13" viewBox="0 0 62 13" fill="none" xmlns="http://www.w3.org/2000/svg">
<path d="M9.1038 7.936C9.1358 8.176 9.1518 8.352 9.1518 8.496C9.1518 9.488 8.7678 10.144 8.0158 10.736C6.8158 11.664 4.8318 12.336 3.0398 12.336C1.0718 12.336 -0.000203013 11.488 -0.000203013 10.096C-0.000203013 8.368 2.0158 6.592 5.8078 5.872C2.9918 5.84 1.6478 5.232 1.6478 3.856C1.6478 2.928 2.2398 2.08 3.4558 1.264C4.6718 0.464002 6.3678 1.90735e-06 8.2558 1.90735e-06C9.4078 1.90735e-06 10.2078 0.192001 10.4158 0.368002C10.5918 0.528002 10.6078 0.736002 10.6078 1.152C10.6078 1.216 10.6078 1.264 10.6078 1.344C10.6078 2.016 10.4158 2.16 9.9198 2.4C8.3998 3.152 7.6158 3.504 7.5998 3.504C7.5198 3.504 7.4878 3.472 7.4878 3.424C7.4878 3.232 7.8558 2.784 8.6398 2.304C8.3678 2.288 8.1278 2.288 7.9838 2.288C6.6558 2.288 5.2478 2.656 4.1438 3.296C3.5358 3.648 3.2318 3.904 3.2318 4.176C3.2318 4.624 4.1438 4.72 6.0958 4.816C7.9358 4.896 8.7998 4.848 8.7998 5.296C8.7998 5.488 8.5598 6.016 8.1278 6.4C7.8238 6.672 7.4078 6.624 6.6558 6.768C5.1838 7.056 4.0318 7.44 3.1358 8C2.1438 8.624 1.6318 9.296 1.6318 9.584C1.6318 9.984 2.1598 10.192 3.1838 10.192C5.2958 10.192 6.9918 9.376 9.1038 7.936ZM10.1464 8.272C10.1944 8.272 10.2424 8.256 10.2744 8.256C10.7224 8.256 11.0584 8.56 11.4264 9.152C12.1304 8.672 12.4184 8.224 12.4184 7.488C12.4184 7.136 12.3544 6.736 12.2264 6.272C11.6024 6.944 10.8824 7.584 10.1464 8.272ZM15.4264 7.552L15.4424 8.208C13.7944 9.952 12.4824 10.816 11.5224 10.816C10.5304 10.816 9.44242 9.872 9.44242 9.04C9.44242 8.704 9.63442 8.448 9.97042 8.304V7.728C11.1384 6.576 11.9064 5.776 12.2904 5.296C12.4344 4.576 12.7064 4.32 13.3784 4.32C13.5864 4.32 13.6504 4.4 13.6504 4.576C13.6504 4.688 13.6184 4.784 13.6184 4.848C13.6184 5.168 13.9064 5.76 13.9064 6.592C13.9064 7.84 12.9784 9.136 11.8584 9.456C12.0504 9.504 12.1944 9.536 12.3384 9.536C12.9784 9.536 14.0184 8.88 15.4264 7.552ZM15.5724 8.128C15.4124 8.24 15.2524 8.352 15.1084 8.464L15.0924 7.824C15.7484 7.12 16.3564 6.432 16.9004 5.728C16.6124 5.68 16.3404 5.648 16.1004 5.648C16.0204 5.648 15.9084 5.648 15.7964 5.648C15.7004 5.648 15.6524 5.616 15.6524 5.552C15.6524 5.376 16.1804 4.528 16.5804 4.24C16.8524 4.048 17.3644 3.968 18.1324 3.968C18.8044 3.056 19.0284 2.608 19.9884 2.608C20.1484 2.608 20.3084 2.72 20.3084 2.832C20.3084 2.976 20.2444 3.088 20.1164 3.232L19.4764 3.984C20.0044 4.016 20.2764 4.128 20.2764 4.272C20.2764 4.32 19.9724 4.928 19.3324 5.52C19.0284 5.792 18.8204 5.872 18.4364 5.872C18.2284 5.872 18.0844 5.872 17.9724 5.856C16.9964 7.072 16.5964 8.304 16.5964 9.024C16.5964 9.328 16.7404 9.472 16.9964 9.472C17.4284 9.472 18.3244 8.832 19.7484 7.552L19.7644 8.208C18.0844 10.016 16.7564 10.896 15.9564 10.896C15.3644 10.896 15.0284 10.544 15.0284 9.936C15.0284 9.456 15.1884 8.832 15.5724 8.128ZM20.1242 10.448C20.1242 9.888 21.1962 8.96 21.6762 8.96C21.8842 8.96 22.0282 9.104 22.0282 9.344C22.0282 9.792 21.2122 10.848 20.5402 10.848C20.2682 10.848 20.1242 10.704 20.1242 10.448ZM29.5525 9.232C32.7525 8.88 34.4485 8.464 34.7045 8.464C34.8805 8.464 34.9445 8.512 34.9445 8.704C34.9445 9.264 34.4005 10.272 33.6165 10.608C32.9925 10.864 31.8085 11.04 30.1445 11.04C29.5205 11.04 29.1045 10.944 28.8165 10.608C28.6405 10.384 28.3845 9.68 28.3845 9.28C28.3845 8.352 29.5365 7.168 31.8565 5.84C34.0805 4.576 35.7765 4.16 35.7765 3.056C35.7765 2.832 35.5205 2.736 35.0405 2.736C34.1605 2.736 32.5765 3.104 31.2965 3.968C32.1765 4 32.6405 4.272 32.6405 4.464C32.6405 4.608 32.5445 4.656 32.3205 4.656C32.2725 4.656 32.2565 4.656 32.2085 4.656C31.5045 4.656 30.8965 4.928 30.6725 4.928C30.6085 4.928 30.5605 4.928 30.4965 4.928C30.2885 4.928 30.0805 4.896 30.0805 4.496C30.0805 2.512 31.8405 1.056 34.7845 1.056C35.5365 1.056 35.9365 1.104 36.1925 1.44C36.4965 1.84 36.6565 2.48 36.6565 3.328C36.6565 4.64 35.9525 5.232 34.2085 6.272C32.8805 7.056 31.2805 7.92 29.5525 9.232ZM44.1135 1.824C44.6735 2.256 44.7695 2.752 44.7695 3.52C44.7695 5.488 44.1295 7.184 42.7215 8.848C41.4735 10.336 39.8895 11.008 38.9455 11.008C37.9695 11.008 36.8175 9.904 36.8175 8.096C36.8175 6.256 37.9055 4.096 39.8095 2.608C41.2015 1.536 42.6095 1.056 43.1055 1.056C43.4415 1.056 43.7775 1.232 44.1775 1.568L44.1135 1.824ZM42.2415 3.488L42.1615 3.088C39.5215 4.896 38.1775 7.024 38.1775 8.768C38.1775 9.376 38.3055 9.6 38.7695 9.6C39.2975 9.6 40.6735 8.88 42.0655 7.184C43.3455 5.632 43.8735 4.192 43.8735 3.36C43.8735 2.96 43.7135 2.736 43.4095 2.736C43.1535 2.736 42.6735 2.976 42.2415 3.488ZM46.8025 9.232C50.0025 8.88 51.6985 8.464 51.9545 8.464C52.1305 8.464 52.1945 8.512 52.1945 8.704C52.1945 9.264 51.6505 10.272 50.8665 10.608C50.2425 10.864 49.0585 11.04 47.3945 11.04C46.7705 11.04 46.3545 10.944 46.0665 10.608C45.8905 10.384 45.6345 9.68 45.6345 9.28C45.6345 8.352 46.7865 7.168 49.1065 5.84C51.3305 4.576 53.0265 4.16 53.0265 3.056C53.0265 2.832 52.7705 2.736 52.2905 2.736C51.4105 2.736 49.8265 3.104 48.5465 3.968C49.4265 4 49.8905 4.272 49.8905 4.464C49.8905 4.608 49.7945 4.656 49.5705 4.656C49.5225 4.656 49.5065 4.656 49.4585 4.656C48.7545 4.656 48.1465 4.928 47.9225 4.928C47.8585 4.928 47.8105 4.928 47.7465 4.928C47.5385 4.928 47.3305 4.896 47.3305 4.496C47.3305 2.512 49.0905 1.056 52.0345 1.056C52.7865 1.056 53.1865 1.104 53.4425 1.44C53.7465 1.84 53.9065 2.48 53.9065 3.328C53.9065 4.64 53.2025 5.232 51.4585 6.272C50.1305 7.056 48.5305 7.92 46.8025 9.232ZM59.7475 2.768C58.6595 3.152 58.0835 3.456 57.8755 3.456C57.7955 3.456 57.7315 3.376 57.7315 3.264C57.7315 3.008 57.9235 2.704 58.3555 2.416C59.5875 1.6 60.6435 1.232 60.8675 1.232C61.1715 1.232 61.3795 1.664 61.3795 2.208C61.3795 2.816 60.9795 3.504 60.3555 4.56L58.6275 7.488C57.9235 8.672 57.4915 10.096 57.4915 10.448C57.4915 10.624 57.5235 10.752 57.5235 10.864C57.5235 11.072 57.4275 11.2 57.2835 11.2C57.1235 11.2 55.9555 10.576 55.9555 9.84C55.9555 8.544 57.0595 5.952 59.7475 2.768Z" fill="#AAAAAA"/>
</svg>
