<svg width="49" height="26" viewBox="0 0 49 26" fill="none" xmlns="http://www.w3.org/2000/svg">
<path d="M27.1035 24.7933C26.9571 24.8925 26.6937 24.9112 26.5047 24.9834C25.703 25.271 25.3714 25.2704 24.6202 25.3188C24.0665 25.3564 22.9337 25.3289 22.0418 24.9434C21.1412 24.5786 20.5666 23.9664 20.7696 23.7007C20.7697 23.7006 20.7697 23.7006 20.7697 23.7006C20.7735 23.6952 20.7776 23.6899 20.782 23.6847C20.8659 23.5879 21.1482 23.6081 21.2545 23.5012C21.3603 23.394 21.845 22.5954 22.0929 22.6726C22.4352 22.8139 23.255 23.2945 23.4848 23.2902C23.6295 23.3021 23.8115 23.2318 23.9901 23.2187C24.56 23.1684 24.8935 23.1669 25.2997 22.7958C25.5258 22.8491 25.7646 22.8823 26.0126 22.8924C26.1537 22.7807 26.3783 22.7052 26.5615 22.6243C26.6825 22.5679 26.7876 22.5183 26.8458 22.4732C26.9747 22.3732 26.997 22.2391 27.1332 22.1374C27.2856 22.023 27.5849 21.9396 27.8589 21.7269C28.3085 21.3786 28.2455 21.114 28.5055 20.8912C28.7752 20.6603 29.3034 20.4553 29.6207 20.1226C29.6509 20.0673 29.6811 20.012 29.7113 19.9567C29.642 19.9288 29.5726 19.9008 29.5033 19.8729C29.672 19.718 29.8261 19.7668 29.998 19.6483C30.2003 19.509 30.2323 19.337 30.3676 19.2422C30.4786 19.1646 30.685 19.1386 30.8249 19.0324C31.0291 18.8779 30.9019 18.7947 30.9992 18.6937C31.0382 18.6536 31.8233 18.004 31.8694 17.97C32.2224 17.7141 32.3649 17.8502 32.6587 17.6635C33.4729 17.1452 34.1914 16.4468 34.8859 15.8843C35.196 15.633 35.5419 15.4026 35.8842 15.1989C35.6586 15.9639 37.0115 15.4804 36.142 15.1462C36.5665 14.9814 36.7018 14.63 37.0644 14.4174C37.299 14.28 37.514 14.2596 37.8284 14.0342C38.3858 13.6338 38.8231 12.9515 39.3026 13.2884C39.9047 12.7443 40.5902 12.5054 40.5465 11.9401C40.6991 11.796 41.3014 11.7259 41.5144 11.6237C41.7159 11.527 43.1728 10.6589 43.403 10.5054C43.6332 10.3518 44.0334 10.0791 44.1991 9.9098C44.3391 9.7675 44.3292 9.48163 44.5394 9.36411C44.6254 9.31828 44.7567 9.31548 44.9903 9.37425C45.3473 9.00243 45.4729 8.88682 45.8059 8.54507C45.8645 8.48152 45.9429 8.52109 45.9707 8.47816C46.0274 8.39015 46.0637 8.20263 46.1359 8.03535C46.2549 7.75948 46.4789 7.65188 46.2036 7.59027C46.2244 7.39148 46.2295 7.19354 46.2196 6.99952C46.2858 6.94507 46.3508 6.8876 46.4145 6.82716C46.371 6.71451 46.3228 6.60543 46.2704 6.50078C46.68 6.65297 46.4461 5.88743 46.2115 6.14004C46.2875 5.77621 46.3133 5.38796 46.2833 4.9929C46.7623 4.90407 46.019 4.15028 45.8209 4.36433C45.8022 4.32649 45.783 4.28894 45.7632 4.2517C45.6899 3.86421 45.4102 3.63437 45.1535 3.2572C44.8801 2.88145 44.9282 2.88572 44.9439 2.62396C44.8442 2.56417 44.7409 2.50776 44.6378 2.45727C44.2309 2.54966 44.1941 2.4184 44.08 2.22977C43.9765 2.05212 43.7786 1.80447 43.2167 1.91463C43.0679 1.66522 42.6889 1.58492 42.2919 1.62617C41.9857 1.65435 41.671 1.71515 41.4114 1.7617C41.3392 1.77464 41.3379 1.84592 41.2417 1.8679C41.0064 1.92076 40.4061 1.82913 40.4266 2.05907C40.2188 1.99254 40.011 1.92601 39.8032 1.85948C39.6333 1.90129 39.4635 1.9431 39.2936 1.98491C39.2945 2.05668 39.2953 2.12846 39.2962 2.20024C38.9542 1.95561 38.4167 2.04962 38.1516 1.99113C38.0988 1.97928 38.0874 1.88026 37.9234 1.85325C37.7317 1.8212 37.3746 1.85049 37.1462 1.81956C37.0574 1.92924 36.9686 2.03892 36.8798 2.1486C36.4713 2.20809 36.3277 1.91859 36.0879 1.8961C36.0447 1.89219 35.2568 1.91299 35.2144 1.91917C34.8669 1.96816 34.9653 2.2148 33.9602 2.16197C33.7812 2.15241 33.6365 2.06707 33.4747 2.06364C33.1889 2.05745 32.3277 2.251 32.26 2.42985C31.9134 2.20601 30.986 2.29751 30.7128 2.23283C30.6304 2.21295 30.6118 2.07037 30.3583 2.04002C30.1529 2.01528 29.6238 2.12944 29.3632 2.11033C29.0867 2.08953 28.9879 1.96975 28.864 1.96129C28.7469 1.95341 28.639 2.0501 28.4794 2.04954C27.9814 2.04617 27.5304 1.89054 27.1367 1.88768C26.5674 1.88318 26.0646 2.16945 25.5882 2.29655C25.47 2.27799 25.3538 2.21655 25.2299 2.21599C23.6965 2.20698 21.9668 2.15424 20.4288 2.09294C19.7149 2.06478 17.9394 1.6762 18.4133 2.32457C18.1652 2.43811 16.3611 2.17671 16.0179 2.17277C15.6748 2.16887 15.4029 2.28513 15.1332 2.28685C14.3195 2.29191 13.7464 2.20813 12.7559 2.30937C12.5001 2.33583 12.226 2.47357 12.0745 2.47197C11.892 2.46972 11.6956 2.33651 11.4592 2.32804C10.8957 2.30892 9.84549 2.35274 9.30486 2.32969C9.20615 2.32519 9.17148 2.20823 9.0303 2.17167C8.48053 2.02883 7.86429 2.04122 7.97333 2.41465C7.26867 2.20264 6.61681 2.39603 5.9638 2.40788C5.91053 2.40881 5.85557 2.40958 5.79907 2.4102C4.66694 2.31076 3.01668 3.23766 2.73652 4.12859C2.53811 4.67013 2.67304 4.69082 2.32292 5.4246C2.25299 5.59258 2.1812 5.76459 2.1279 5.98427C1.99886 6.47914 1.78608 7.08264 2.26957 7.35458C2.36421 7.9379 2.66624 8.27655 2.73064 8.83047C2.82431 8.82056 2.91704 8.80789 3.00872 8.79261C3.06212 8.84499 3.11538 8.89424 3.17094 8.94296C3.13839 9.01219 3.10698 9.08218 3.07672 9.15292C3.19452 9.26537 3.33814 9.35442 3.5034 9.43232C3.99058 9.67834 4.54089 9.87923 4.88036 10.1208C5.67545 10.6861 7.66115 12.2304 8.36017 12.8443C8.73127 13.1702 8.84295 13.0578 8.88749 13.4823C8.99011 13.5274 9.09274 13.5725 9.19537 13.6176C9.29208 13.5998 9.38879 13.582 9.4855 13.5642C10.0019 13.9253 10.5495 14.4455 11.0405 14.7908C11.9354 15.4197 13.3889 16.2088 14.213 16.9461C14.4195 17.1311 14.6172 17.4481 14.8384 17.6023C15.1604 17.8268 15.3771 17.6853 15.7867 17.9689C16.4923 18.458 17.6373 19.6084 18.3126 20.0589C18.5131 20.1928 18.6566 20.1845 18.7981 20.2727C19.3918 20.6416 19.8557 20.978 20.4822 21.2508C20.9362 21.8535 20.7138 22.0609 20.7225 22.4347C20.7297 22.7172 20.8495 23.4447 20.795 23.6493C20.7567 23.793 20.4959 23.8285 20.4664 23.9956C19.6925 23.5993 19.4748 23.2805 19.0283 22.701C17.9688 21.9636 16.9092 21.2262 15.8497 20.4888C15.8021 20.3526 15.7544 20.2164 15.7068 20.0803C15.7069 20.0801 15.707 20.08 15.7071 20.0798C15.3579 19.7149 15.0618 19.7701 14.8151 19.6559C12.4536 18.5631 8.54965 15.358 6.2781 13.6898C5.78852 13.3305 4.10972 12.2837 3.84783 11.9322C3.78015 11.841 3.83015 11.7182 3.73963 11.6474C3.31803 11.3947 2.89642 11.1421 2.47482 10.8895C1.95448 10.5716 1.46868 10.1706 1.05535 9.68979C-0.321188 7.6011 -0.391752 4.69817 1.08387 2.64801C2.12799 1.14486 3.98839 0.222234 5.79907 0.230544C9.97331 0.170286 14.1199 0.12211 18.247 0.14469C19.3397 0.150877 20.7263 0.0540643 21.796 0.116492C22.2425 0.142377 22.4285 0.349887 23.015 0.195227C23.0211 0.251136 23.0273 0.307046 23.0334 0.362954C23.5453 0.295459 23.8724 0.168246 24.4462 0.155311C24.9294 0.144626 26.2079 0.136323 26.6349 0.157691C26.8564 0.168376 26.7739 0.272845 26.9803 0.272315C27.3338 0.270629 28.0892 0.126201 28.577 0.126197C29.0189 0.126197 29.7638 0.246538 30.1036 0.229103C31.3271 0.167238 32.6598 -0.0111449 33.9636 0.036659C34.3238 0.050186 34.7871 0.185642 34.8999 0.181862C35.1202 0.17399 35.1858 0.0424079 35.3338 0.0254897C36.0856 -0.0599918 37.2574 0.0963746 37.9943 0.102577C39.3978 0.114413 40.85 0.099709 42.2919 0.0902753C43.5154 0.0759532 44.7836 0.443036 45.7776 1.15669C47.4422 2.12838 48.7089 5.18523 48.2671 6.8695C48.2017 7.22675 48.0721 7.10799 48.0175 7.39871C47.9506 7.71769 47.9881 7.91729 47.9476 8.06861C47.7748 8.93912 46.783 10.5031 45.7692 11.1065C45.5813 11.2314 45.411 11.3372 45.2695 11.4143C45.1254 11.4926 44.9638 11.4685 44.8843 11.5251C44.844 11.5535 44.7974 11.6808 44.6753 11.7766C43.5978 12.6225 42.7569 13.1611 41.6465 13.9126C39.52 15.3523 37.1723 17.1851 34.924 18.6771C34.4342 19.0022 33.9761 19.0521 33.9099 19.1016C33.7644 19.2099 33.7562 19.3996 33.4775 19.6417C32.5503 20.4456 31.1142 21.263 30.2087 21.9943C29.7614 22.3556 29.2272 22.9661 28.7902 23.3263C28.5308 23.5401 27.9597 23.9005 27.6363 24.1469C27.4962 24.252 27.3881 24.3328 27.3447 24.3851C27.2423 24.5073 27.261 24.6852 27.1035 24.7933ZM38.2374 13.8991C38.3216 14.1577 38.8869 13.4943 38.5477 13.5631C38.4713 13.5785 38.2154 13.832 38.2374 13.8991ZM23.1778 1.76097C23.1856 1.83518 23.1933 1.9094 23.201 1.98362C23.3119 1.95274 23.4227 1.92186 23.5336 1.89097C23.4713 1.84635 23.409 1.80174 23.3467 1.75712C23.2904 1.7584 23.2341 1.75968 23.1778 1.76097Z" fill="#BDBDBD"/>
</svg>
