<svg width="574" height="339" viewBox="0 0 574 339" fill="none" xmlns="http://www.w3.org/2000/svg">
<path d="M130.282 338.164L126.792 337.36L124.842 336.813L122.891 336.267L120.633 335.401L118.375 334.534L116.22 333.455L114.064 332.376L112.319 331.242L110.574 330.108L109.343 329.173L108.111 328.239L106.088 326.274L104.065 324.309L102.884 322.871L101.704 321.433L100.214 319.173L98.7243 316.913L97.5346 314.447L96.3448 311.982L95.5982 309.963L94.8517 307.944L94.1624 305.546L93.4731 303.147L92.9505 300.579L92.4278 298.011L92.1141 295.854L91.8003 293.697L91.5921 291.334L91.3839 288.971L91.3826 285.068L91.3814 281.164L91.5924 278.801L91.8034 276.439L92.315 273.332L92.8267 270.225L93.438 267.719L94.0493 265.214L94.9852 262.348L95.9211 259.482L96.9291 257.028L97.9371 254.573L98.8942 252.665L99.8513 250.757L101.085 248.702L102.319 246.648L103.57 244.902L104.822 243.155L106.59 241.092L108.357 239.029L110.201 237.337L112.045 235.645L113.67 234.387L115.295 233.13L117.338 231.794L119.38 230.459L121.649 229.269L123.917 228.078L125.662 227.331L127.407 226.583L129.982 225.698L132.557 224.814L134.498 224.29L136.44 223.766L138.903 223.252L141.366 222.738L144.343 222.33L147.32 221.922L149.988 221.656L152.657 221.391L158.61 221.39L164.563 221.389L166.924 221.647L169.285 221.906L171.712 222.316L174.139 222.727L176.433 223.322L178.728 223.916L180.575 224.56L182.423 225.204L185.297 226.6L188.171 227.996L190.326 229.427L192.482 230.857L194.329 232.402L196.177 233.948L197.72 235.572L199.264 237.197L200.557 238.898L201.85 240.599L202.898 242.288L203.946 243.977L205.137 246.442L206.329 248.908L207.24 251.681L208.151 254.455L208.673 257.132L209.194 259.808L209.436 262.679L209.677 265.549L209.546 268.631L209.415 271.713L209.022 274.39L208.629 277.068L208.085 279.527L207.542 281.986L206.543 285.004L205.544 288.022L204.51 290.14L203.477 292.258L202.278 294.107L201.079 295.957L199.509 297.828L197.938 299.7L196.236 301.141L194.535 302.583L192.76 303.737L190.985 304.892L189.632 305.499L188.279 306.107L186.618 306.632L184.957 307.157L183.074 307.463L181.191 307.768L178.933 307.768L176.675 307.768L174.622 307.459L172.569 307.149L171.069 306.738L169.568 306.327L168.554 305.812L167.54 305.298L165.641 303.998L163.742 302.698L161.916 301.439L160.09 300.18L159.05 301.047L158.01 301.915L156.713 303.063L155.416 304.211L153.872 305.096L152.327 305.98L150.952 306.485L149.578 306.99L148.038 307.27L146.498 307.55L144.856 307.557H143.214L141.777 307.352L140.34 307.148L138.724 306.732L137.108 306.316L135.85 305.787L134.592 305.257L133.258 304.382L131.923 303.507L131.03 302.632L130.137 301.757L129.212 300.501L128.287 299.244L127.687 298.057L127.088 296.87L126.478 295.048L125.868 293.227L125.444 290.791L125.02 288.355L124.904 285.171L124.789 281.986L125.03 279.726L125.272 277.466L125.791 275.127L126.311 272.789L127.029 270.723L127.747 268.658L128.658 266.708L129.568 264.758L130.932 262.689L132.295 260.619L134.573 258.348L136.85 256.076L138.492 254.995L140.135 253.914L141.982 253.011L143.83 252.108L145.718 251.493L147.607 250.879L149.824 250.444L152.041 250.009L155.223 249.894L158.405 249.78L160.663 250.021L162.921 250.262L164.64 250.666L166.359 251.07L167.8 251.828L169.241 252.585L170.501 253.846L171.76 255.106L172.528 256.63L173.296 258.153L173.596 259.592L173.897 261.03L173.898 262.879L173.899 264.728L173.688 267.193L173.477 269.659L172.764 275.29L172.05 280.92L171.755 282.07L171.46 283.219L171.237 285.031L171.014 286.844L171.222 287.968L171.429 289.092L171.762 289.794L172.095 290.496L173.015 291.344L173.934 292.193L175.003 292.682L176.071 293.172L177.518 293.377L178.965 293.583L180.208 293.382L181.451 293.182L182.298 292.883L183.146 292.583L184.065 291.95L184.985 291.317L186.085 289.939L187.184 288.561L188.008 287.328L188.832 286.095L189.401 284.97L189.97 283.844L190.36 282.71L190.751 281.575L191.062 279.007L191.373 276.439L191.492 271.611L191.61 266.782L191.376 264.214L191.142 261.646L190.82 259.694L190.499 257.743L189.808 255.653L189.117 253.563L188.463 252.263L187.81 250.963L186.9 249.55L185.99 248.138L183.936 246.024L181.881 243.911L180.099 242.639L178.317 241.367L175.443 239.952L172.569 238.537L170.394 237.83L168.22 237.123L165.776 236.61L163.331 236.096L161.192 235.851L159.052 235.605L154.52 235.711L149.988 235.817L147.575 236.247L145.162 236.677L143.145 237.189L141.129 237.7L139.029 238.432L136.929 239.163L134.913 240.058L132.896 240.953L130.902 242.099L128.908 243.245L127.257 244.433L125.606 245.621L123.879 247.135L122.151 248.649L120.732 250.29L119.314 251.93L118.101 253.706L116.889 255.483L115.593 257.739L114.297 259.995L113.188 262.464L112.08 264.933L111.175 267.638L110.271 270.344L109.663 273.391L109.055 276.439L108.812 279.007L108.569 281.575L108.69 285.068L108.811 288.561L109.216 291.231L109.62 293.902L110.136 296.076L110.651 298.249L111.404 300.596L112.158 302.942L113.085 305.305L114.012 307.668L114.728 309.106L115.445 310.544L116.393 311.982L117.341 313.42L118.987 315.148L120.632 316.875L122.23 318.067L123.828 319.259L125.67 320.182L127.511 321.105L129.717 321.814L131.923 322.524L133.873 322.844L135.823 323.164L137.774 323.296L139.724 323.429L142.085 323.194L144.445 322.958L146.185 322.548L147.925 322.138L149.454 321.312L150.982 320.487L152.641 319.165L154.299 317.842L155.92 316.514L157.542 315.186L158.897 314.476L160.252 313.767L161.169 313.522L162.086 313.278L163.616 313.284L165.146 313.291L166.64 314.029L168.133 314.768L168.869 315.628L169.604 316.488L170.088 317.523L170.572 318.557L170.801 319.646L171.029 320.735V321.925V323.114L170.625 324.699L170.22 326.283L169.497 327.659L168.774 329.036L167.9 330.101L167.026 331.166L165.74 332.198L164.453 333.231L163.163 333.953L161.874 334.675L160.344 335.308L158.815 335.941L156.849 336.528L154.884 337.114L150.722 338.057L146.56 339L140.165 338.985L133.771 338.969L130.282 338.164ZM149.537 290.921L150.873 290.508L152.085 289.615L153.297 288.722L154.283 287.409L155.27 286.095L156.072 284.5L156.873 282.905L157.474 280.444L158.074 277.982L158.494 275.464L158.913 272.946L159.131 270.994L159.349 269.042L159.222 268.015L159.096 266.988L158.798 266.05L158.5 265.112L157.734 264.382L156.968 263.652L156.271 263.419L155.573 263.187H154.624H153.676L152.143 263.612L150.611 264.037L149.193 264.783L147.774 265.529L146.11 267.106L144.446 268.684L143.672 269.993L142.899 271.302L142.28 272.904L141.662 274.506L140.615 278.246L139.568 281.986L139.893 283.956L140.219 285.926L140.667 287.124L141.114 288.321L141.948 289.227L142.783 290.133L143.354 290.428L143.925 290.724L145.007 291.015L146.088 291.307L147.144 291.32L148.201 291.334L149.537 290.921ZM254.878 323.173L253.02 323.02L250.669 322.57L248.319 322.12L245.856 321.302L243.392 320.484L240.917 319.271L238.443 318.057L236.196 316.57L233.949 315.083L231.575 312.711L229.2 310.338L227.831 308.269L226.462 306.199L225.56 304.262L224.658 302.326L224.035 300.374L223.412 298.422L222.996 296.265L222.58 294.108L222.326 291.848L222.072 289.588L222.091 278.042L222.109 266.497L221.368 266.434L220.627 266.371L220.668 265.241L220.708 264.111L220.919 257.639L221.13 251.167L221.334 247.572L221.538 243.976L221.857 240.717L222.175 237.457L222.566 235.924L222.958 234.392L223.527 233.342L224.096 232.293L225.06 231.235L226.024 230.177L227.237 229.53L228.449 228.884L229.865 228.55L231.281 228.216L233.539 228.324L235.797 228.432L237.029 228.761L238.26 229.09L239.492 229.692L240.724 230.294L241.527 231.074L242.331 231.855L242.905 232.756L243.48 233.657L243.826 235.217L244.173 236.777L244.047 246.027L243.92 255.276L243.687 266.679L243.454 278.082L243.581 281.369L243.708 284.656L243.922 286.916L244.136 289.176L244.54 290.923L244.945 292.669L245.769 294.339L246.593 296.01L247.711 297.246L248.828 298.482L249.971 299.241L251.113 299.999L252.703 300.58L254.292 301.161L256.012 301.412L257.731 301.664L259.697 301.535L261.663 301.407L262.894 301.077L264.126 300.748L265.768 299.898L267.411 299.048L268.852 297.605L270.294 296.162L271.152 294.506L272.009 292.851L272.481 291.219L272.953 289.587L272.933 282.91L272.913 276.233L272.43 267.398L271.948 258.564L271.937 249.318L271.927 240.073L272.209 237.916L272.492 235.758L272.869 234.526L273.246 233.293L273.836 232.368L274.426 231.444L275.097 230.793L275.767 230.143L276.945 229.514L278.123 228.886L279.439 228.576L280.754 228.265L283.231 228.262L285.709 228.259L286.824 228.59L287.939 228.921L288.947 229.432L289.955 229.943L290.942 230.957L291.929 231.971L292.753 233.659L293.578 235.347L294.118 237.402L294.658 239.456L294.719 251.372L294.781 263.289L294.594 271.712L294.407 280.136L294.202 282.91L293.998 285.683L293.675 288.97L293.353 292.258L292.844 294.826L292.335 297.394L291.601 299.551L290.867 301.708L289.963 303.606L289.06 305.503L287.381 308.023L285.702 310.543L283.331 312.906L280.959 315.268L279.009 316.657L277.059 318.045L274.185 319.472L271.311 320.899L269.361 321.524L267.411 322.149L265.46 322.551L263.51 322.953L261.047 323.166L258.583 323.38L257.66 323.353L256.736 323.326L254.878 323.173ZM448.675 321.856L447.238 321.572L445.915 321.022L444.591 320.472L443.03 319.686L441.469 318.901L439.632 317.67L437.795 316.439L436.153 315.011L434.511 313.583L432.458 311.269L430.405 308.955L428.25 306.254L426.094 303.554L423.352 300.063L420.609 296.573L416.783 292.809L412.956 289.045L412.829 291.268L412.703 293.491L412.885 297.292L413.067 301.093L413.186 306.743L413.306 312.393L412.985 313.898L412.664 315.404L412.154 316.519L411.644 317.633L410.61 318.727L409.577 319.821L408.495 320.365L407.414 320.908L406.079 321.257L404.745 321.606L402.281 321.599L399.818 321.592L398.484 321.238L397.149 320.885L395.918 320.236L394.686 319.588L393.762 318.648L392.839 317.709L392.275 316.556L391.712 315.403L391.406 314.104L391.1 312.804L391.096 308.961L391.093 305.119L391.423 297.97L391.753 290.821L391.63 282.5L391.506 274.179L391.207 267.194L390.907 260.208L390.667 254.193L390.426 248.179L390.535 244.64L390.644 241.101L391.07 239.409L391.496 237.717L392.035 236.43L392.573 235.143L393.478 233.776L394.383 232.408L395.629 231.254L396.875 230.099L398.404 229.204L399.933 228.308L401.826 227.681L403.718 227.054L405.771 226.64L407.824 226.227L410.082 225.908L412.34 225.59L414.598 225.384L416.856 225.179L420.991 225.179L425.127 225.178L427.253 225.389L429.379 225.599L431.809 226.004L434.239 226.409L436.428 226.945L438.616 227.482L440.722 228.171L442.827 228.86L444.725 229.779L446.622 230.697L448.198 231.741L449.774 232.784L451.467 234.374L453.161 235.965L454.311 237.513L455.461 239.061L456.325 240.724L457.189 242.386L457.894 244.517L458.599 246.648L458.921 248.6L459.244 250.552L459.375 252.915L459.505 255.277L459.266 258.154L459.026 261.03L458.614 263.06L458.202 265.09L457.577 267.066L456.953 269.043L455.928 271.15L454.904 273.257L453.786 274.816L452.668 276.376L451.698 277.501L450.728 278.625L449.291 279.815L447.854 281.005L446.52 281.868L445.185 282.732L443.748 283.422L442.311 284.112L440.156 285.073L438 286.034L437.833 286.191L437.665 286.348L440.296 288.396L442.927 290.444L445.801 292.604L448.675 294.764L452.37 297.231L456.065 299.699L457.534 300.872L459.003 302.045L459.967 303.274L460.932 304.503L461.517 305.674L462.102 306.846L462.416 308.182L462.731 309.517L462.73 310.441L462.73 311.366L462.428 312.804L462.126 314.242L461.373 315.783L460.62 317.324L459.265 318.66L457.911 319.995L456.68 320.643L455.449 321.291L454.342 321.617L453.235 321.942L451.674 322.041L450.112 322.141L448.675 321.856ZM426.49 271.928L428.379 271.448L430.039 270.612L431.7 269.777L432.967 268.722L434.234 267.666L435.172 266.402L436.111 265.139L436.799 263.663L437.487 262.187L437.896 260.479L438.306 258.77V256.604V254.439L437.991 253.231L437.677 252.023L437.016 250.774L436.356 249.524L435.098 248.279L433.841 247.034L432.417 246.285L430.992 245.536L429.158 244.925L427.323 244.314L425.741 243.992L424.159 243.669H422.027H419.896L418.347 244.065L416.798 244.462L415.369 245.182L413.94 245.902L413.283 246.456L412.625 247.01L412.107 248.032L411.589 249.055L411.381 250.933L411.173 252.811L411.16 257.948L411.148 263.084L411.465 264.728L411.782 266.371L412.244 267.594L412.706 268.817L413.959 270.086L415.211 271.355L416.387 271.786L417.562 272.217L418.85 272.415L420.138 272.613L422.368 272.51L424.597 272.407L426.49 271.928ZM343.263 321.123L341.518 320.943L339.465 320.604L337.412 320.265L335.084 319.666L332.756 319.068L330.668 318.251L328.58 317.434L326.75 316.491L324.92 315.549L322.753 314.074L320.587 312.598L318.553 310.647L316.519 308.695L315.23 307.043L313.941 305.391L312.861 303.653L311.782 301.915L310.911 300.052L310.039 298.19L309.291 296.046L308.542 293.902L308.057 291.848L307.572 289.793L307.229 287.636L306.886 285.478L306.779 279.686L306.673 273.893L306.909 270.543L307.144 267.193L307.56 264.317L307.976 261.44L308.503 259.078L309.029 256.715L309.92 254.013L310.811 251.31L311.726 249.273L312.641 247.235L313.736 245.347L314.831 243.459L316.165 241.57L317.5 239.68L319.347 237.742L321.195 235.804L322.632 234.636L324.069 233.467L325.608 232.442L327.148 231.417L328.493 230.673L329.838 229.929L332.127 228.99L334.416 228.052L336.755 227.449L339.094 226.845L341.435 226.483L343.776 226.12L347.779 226.124L351.782 226.128L354.143 226.484L356.503 226.84L358.762 227.373L361.02 227.905L363.586 228.783L366.152 229.661L367.749 230.39L369.346 231.119L371.059 232.236L372.771 233.353L373.947 234.529L375.122 235.706L376.117 237.231L377.111 238.755L377.549 239.925L377.986 241.095L378.285 242.228L378.584 243.361L378.7 244.901L378.817 246.442L378.49 247.983L378.164 249.524L377.536 250.803L376.909 252.082L375.841 253.252L374.774 254.422L373.747 255.075L372.721 255.729L371.489 256.202L370.257 256.675L368.41 256.682L366.562 256.688L365.536 256.321L364.509 255.954L363.288 255.216L362.067 254.479L359.884 252.395L357.701 250.311L356.755 249.66L355.809 249.008L354.133 248.197L352.458 247.386L350.912 247.042L349.367 246.698L346.879 246.811L344.392 246.925L343.16 247.329L341.928 247.732L341.107 248.087L340.286 248.442L338.875 249.355L337.465 250.268L336.335 251.335L335.206 252.401L334.294 253.584L333.383 254.767L332.487 256.46L331.591 258.154L330.557 261.236L329.523 264.317L328.963 266.988L328.402 269.659L328.391 274.077L328.38 278.494L328.847 280.801L329.314 283.107L330.039 285.218L330.763 287.328L331.707 289.254L332.652 291.18L333.82 292.747L334.989 294.314L336.2 295.454L337.412 296.595L338.403 297.273L339.393 297.95L340.955 298.673L342.518 299.395L344.379 299.779L346.239 300.164H347.598H348.957L350.677 299.862L352.398 299.561L353.901 299.047L355.404 298.534L356.877 297.824L358.351 297.114L362.559 294.292L366.768 291.47L367.69 291.059L368.613 290.649L369.64 290.375L370.668 290.101H372.119H373.57L374.685 290.429L375.8 290.756L376.855 291.355L377.91 291.955L378.744 292.765L379.579 293.575L380.201 294.663L380.823 295.751L381.163 297.277L381.502 298.802L381.378 300.667L381.254 302.531L380.85 304.102L380.447 305.672L379.789 306.978L379.131 308.284L378.354 309.431L377.576 310.578L376.303 311.84L375.031 313.102L373.196 314.36L371.362 315.617L368.654 316.913L365.946 318.208L363.586 318.967L361.225 319.725L358.864 320.211L356.503 320.697L354.861 320.916L353.219 321.134L349.113 321.219L345.008 321.304L343.263 321.123ZM455.773 219.197L453.838 219.025L451.441 218.611L449.043 218.197L446.684 217.583L444.324 216.97L442.511 216.33L440.697 215.689L438.943 214.878L437.188 214.067L434.823 212.493L432.458 210.919L430.293 208.752L428.129 206.584L426.759 204.521L425.39 202.458L424.469 200.511L423.547 198.565L422.922 196.65L422.297 194.736L421.894 192.75L421.491 190.765L421.25 188.299L421.01 185.834L421.133 183.361L421.257 180.888L421.684 178.677L422.11 176.465L422.737 174.678L423.365 172.89L424.402 170.861L425.44 168.832L426.667 167.163L427.894 165.494L429.674 163.747L431.453 162.001L432.721 161.077L433.99 160.152L436.303 158.75L438.617 157.348L444.775 154.294L450.934 151.24L460.274 147.042L469.614 142.845L470.743 142.485L471.872 142.124L472.036 141.975L472.2 141.826L470.645 134.861L469.089 127.896L467.879 123.17L466.669 118.445L464.684 111.665L462.7 104.885L462.646 104.83L462.592 104.775L458.829 111.404L455.065 118.034L452.926 121.63L450.786 125.225L448.68 128.413L446.574 131.602L444.429 134.474L442.284 137.347L439.942 140.12L437.6 142.894L434.516 145.994L431.431 149.094L429.181 151.01L426.931 152.927L424.254 154.921L421.578 156.915L419.525 158.247L417.472 159.579L415.009 160.981L412.545 162.382L410.423 163.386L408.301 164.39L405.907 165.188L403.513 165.985L401.414 166.41L399.314 166.835L396.607 167.052L393.899 167.27L391.07 167.047L388.241 166.825L386.536 166.509L384.832 166.193L382.574 165.597L380.316 165.001L378.879 164.46L377.442 163.919L375.807 163.068L374.172 162.218L372.625 161.061L371.078 159.904L369.718 158.483L368.359 157.061L367.189 155.266L366.02 153.47L365.31 151.933L364.6 150.395L363.983 148.506L363.367 146.617L362.867 144.139L362.367 141.661L362.132 138.785L361.897 135.908L361.69 135.344L361.483 134.779H361.335H361.187L358.993 138.073L356.799 141.368L352.473 146.408L348.147 151.448L345.834 153.961L343.52 156.473L341.39 158.482L339.259 160.491L337.303 161.802L335.347 163.113L333.741 163.845L332.136 164.578L330.052 165.306L327.969 166.034L325.916 166.534L323.863 167.034L322.11 167.034L320.357 167.035L319.149 166.72L317.941 166.405L316.899 165.847L315.857 165.288L314.42 163.848L312.983 162.408L312.071 160.789L311.158 159.169L310.38 156.883L309.602 154.598L308.996 151.725L308.39 148.852L307.986 145.396L307.582 141.94L307.509 141.867L307.436 141.794L304.219 145.837L301.002 149.879L298.986 152.073L296.971 154.268L295.123 155.955L293.276 157.642L291.727 158.823L290.178 160.003L288.396 161.166L286.613 162.329L284.299 163.442L281.985 164.554L279.805 165.268L277.624 165.982L275.477 166.397L273.329 166.812L270.507 167.055L267.685 167.299L265.022 167.055L262.359 166.812L260.376 166.296L258.392 165.78L256.718 164.995L255.044 164.21L253.837 163.389L252.63 162.568L251.555 161.601L250.48 160.633L249.241 158.987L248.002 157.341L247.093 155.459L246.183 153.577L245.656 151.947L245.129 150.317L244.734 148.352L244.339 146.387L244.128 144.024L243.917 141.661L243.778 138.939L243.639 136.217H243.482H243.326L242.767 136.884L242.207 137.552L235.835 144.538L229.463 151.523L225.034 155.954L220.606 160.385L219.169 161.53L217.732 162.674L216.175 163.616L214.618 164.558L213.106 165.202L211.594 165.846L209.633 166.363L207.673 166.88L204.55 166.982L201.427 167.084L199.726 166.844L198.025 166.603L196.485 166.192L194.945 165.781L193.247 164.961L191.548 164.142L190.168 162.838L188.787 161.534L188.012 160.227L187.237 158.919L186.726 157.308L186.216 155.697L185.989 153.097L185.763 150.496L185.88 145.257L185.998 140.018L186.314 137.449L186.631 134.881L187.165 131.902L187.699 128.923L188.479 125.841L189.259 122.76L190.125 120.089L190.991 117.418L192.07 114.644L193.15 111.87L194.638 108.481L196.127 105.091L198.591 99.7488L201.056 94.407L206.697 82.6962L212.338 70.9853L213.787 67.9035L215.236 64.8217L215.814 63.9671L216.392 63.1124L217.071 62.6921L217.751 62.2718L218.584 62.1384L219.417 62.0051L221.654 62.7659L223.89 63.5266L226.662 64.6509L229.433 65.7752L230.562 66.4133L231.691 67.0515L232.895 67.8609L234.099 68.6703L234.89 69.4613L235.68 70.2522L236.183 71.0495L236.686 71.8468L237.011 72.9429L237.336 74.0389L237.333 75.3885L237.33 76.738L237.024 78.0368L236.718 79.3355L231.709 92.7267L226.701 106.118L224.296 112.692L221.892 119.267L219.38 126.252L216.867 133.238L216.609 134.327L216.351 135.416L216.359 136.728L216.366 138.039L216.758 138.926L217.15 139.812L217.881 140.455L218.612 141.097L219.554 141.457L220.495 141.817L221.495 141.721L222.495 141.625L223.398 141.186L224.3 140.747L225.483 139.766L226.666 138.785L229.155 136.114L231.644 133.443L233.796 130.875L235.947 128.307L237.966 125.61L239.984 122.914L242.125 119.652L244.265 116.39L246.01 113.309L247.755 110.227L249.004 107.729L250.253 105.232L251.205 103.107L252.158 100.981L253.968 97.2833L255.777 93.5851L257.158 91.1197L258.538 88.6543L260.276 85.9901L262.015 83.3258L263.58 81.2646L265.145 79.2034L268.227 76.1093L271.31 73.0152L273.065 71.6623L274.819 70.3093L277.17 68.7355L279.522 67.1616L282.396 65.7438L285.27 64.326L287.117 63.7233L288.965 63.1206L290.71 62.7384L292.454 62.3562L296.663 62.37L300.871 62.3838L303.232 63.0148L305.593 63.6459L307.132 64.3532L308.672 65.0606L310.383 66.1231L312.093 67.1856L315.207 69.4049L318.32 71.6242L318.981 72.013L319.642 72.4019L319.743 72.3008L319.844 72.1998L323.04 65.4585L326.236 58.7173L328.477 54.2704L330.719 49.8236L332.295 47.05L333.871 44.2764L335.587 41.6511L337.302 39.0259L338.884 36.9257L340.465 34.8255L342.013 32.9765L343.562 31.1274L345.721 28.8891L347.881 26.6508L349.728 25.1023L351.576 23.5538L353.218 22.4857L354.86 21.4175L356.503 20.597L358.145 19.7766L359.637 19.2402L361.128 18.7039L363.229 18.2748L365.33 17.8459L368.016 17.842L370.702 17.8381L372.532 18.1767L374.362 18.5153L375.799 18.9355L377.236 19.3559L378.736 20.0461L380.237 20.7364L381.61 21.6554L382.984 22.5744L384.144 23.7692L385.304 24.964L386.248 26.3883L387.192 27.8127L387.786 29.3674L388.381 30.9221L388.737 32.5396L389.092 34.1571L388.986 35.3313L388.88 36.5054L388.555 37.1333L388.231 37.7612L387.59 38.4028L386.949 39.0444L383.735 41.1739L380.521 43.3033L378.057 45.1367L375.594 46.9701L373.131 49.0255L370.667 51.0809L367.896 53.6597L365.125 56.2386L362.523 59.0921L359.921 61.9455L358.551 63.5891L357.18 65.2328L355.066 68.0349L352.952 70.8371L351.212 73.4794L349.471 76.1218L347.793 78.9981L346.115 81.8745L344.489 85.0866L342.863 88.2988L341.54 91.2805L340.218 94.2621L338.891 97.7246L337.565 101.187L336.513 104.408L335.461 107.628L334.555 110.904L333.65 114.18L332.914 117.352L332.178 120.523L331.858 122.669L331.538 124.814L331.42 130.053L331.302 135.292L331.547 136.467L331.793 137.642L332.413 138.884L333.033 140.126L333.728 140.657L334.423 141.187L335.426 141.18L336.429 141.172L337.719 140.737L339.008 140.302L340.406 139.598L341.804 138.893L343.163 137.621L344.522 136.348L347.002 133.252L349.481 130.156L351.781 127.074L354.08 123.992L356.345 120.705L358.609 117.418L360.145 114.952L361.682 112.487L363.362 109.611L365.043 106.734L367.239 102.317L369.436 97.8999L371.072 94.4072L372.709 90.9145L374.116 88.2617L375.524 85.6088L376.777 83.5989L378.031 81.5889L379.671 79.3861L381.311 77.1834L383.379 75.0338L385.448 72.8841L387.5 71.2305L389.553 69.5769L391.709 68.1521L393.864 66.7274L396.328 65.5349L398.791 64.3423L400.69 63.7128L402.589 63.0832L404.693 62.6281L406.797 62.173L410.903 62.1724L415.008 62.1718L417.586 62.7196L420.164 63.2674L422.292 64.0087L424.42 64.75L425.873 65.4821L427.325 66.2142L428.865 67.2429L430.405 68.2716L432.149 70.0536L433.894 71.8357L434.899 73.5181L435.903 75.2006L436.575 76.9967L437.247 78.7927L437.581 80.4174L437.914 82.042L438.092 84.4232L438.27 86.8043L438.089 89.3583L437.908 91.9124L437.474 94.4952L437.041 97.078L436.359 99.7503L435.677 102.423L434.815 104.784L433.953 107.145L432.658 109.816L431.363 112.487L430.193 114.336L429.023 116.184L427.603 118.075L426.183 119.965L424.095 122.154L422.006 124.344L420.047 125.986L418.088 127.627L415.726 129.211L413.364 130.795L411.227 131.996L409.09 133.196L407.181 133.879L405.271 134.562L402.031 135.401L398.791 136.24L398.034 136.438L397.276 136.637L397.591 137.711L397.906 138.785L398.443 139.779L398.979 140.774L400.066 141.768L401.153 142.762L402.3 143.305L403.448 143.849L404.917 144.163L406.386 144.478L408.85 144.488L411.313 144.498L412.648 144.251L413.982 144.005L415.316 143.577L416.651 143.149L418.19 142.406L419.73 141.664L421.093 140.635L422.456 139.607L425.721 136.594L428.987 133.582L431.979 130.499L434.971 127.417L437.536 124.43L440.101 121.442L441.846 119.122L443.591 116.802L445.129 114.542L446.667 112.282L448.436 109.359L450.205 106.436L452.096 102.99L453.986 99.5435L456.696 93.9963L459.406 88.4491L462.384 81.9675L465.363 75.486L466.303 73.8942L467.244 72.3025L468.372 70.8018L469.501 69.3011L471.063 67.816L472.625 66.3309L474.399 65.1736L476.173 64.0163L477.923 63.2681L479.672 62.5198L481.315 62.09L482.957 61.6603L484.674 61.4163L486.391 61.1724L490.011 61.2858L493.632 61.3991L495.274 61.8114L496.916 62.2236L497.927 62.6577L498.938 63.0917L500.332 64.019L501.726 64.9463L502.853 66.1927L503.98 67.4391L504.799 69.1096L505.619 70.7801L505.965 72.5192L506.312 74.2583L506.2 76.1356L506.088 78.0129L505.632 79.7042L505.176 81.3955L504.353 82.6292L503.53 83.863L502.481 84.6974L501.432 85.5317L499.988 86.2218L498.544 86.9118L497.012 87.2377L495.479 87.5635L493.632 87.462L491.784 87.3605L490.435 86.9319L489.086 86.5033L487.837 85.6953L486.588 84.8872L485.716 83.5863L484.844 82.2854L484.793 82.2197L484.742 82.154L483.932 82.5675L483.122 82.9811L483.003 84.8231L482.883 86.6652L483.073 90.0225L483.262 93.3799L483.477 95.0235L483.693 96.6672L484.108 99.0299L484.523 101.393L485.116 103.986L485.71 106.58L486.546 109.636L487.382 112.692L490.028 121.219L492.675 129.745L493.111 131.235L493.546 132.724H493.61H493.673L495.564 131.696L497.455 130.667L499.649 129.402L501.843 128.136L504.713 126.304L507.583 124.473L509.743 122.901L511.902 121.329L514.466 119.271L517.03 117.212L519.882 114.439L522.733 111.665L524.581 109.525L526.428 107.385L528.112 105.108L529.797 102.831L530.831 101.187L531.864 99.5435L532.716 98.0621L533.568 96.5807L534.267 94.9462L534.966 93.3116L535.58 91.394L536.193 89.4763L536.617 87.2774L537.041 85.0785L537.276 82.141L537.51 79.2036L537.378 76.2246L537.246 73.2455L537.036 70.9855L536.827 68.7255L536.406 67.2962L535.985 65.8669L535.305 64.5226L534.624 63.1783L533.278 60.8382L531.931 58.4982L531.582 57.4483L531.233 56.3983L531.233 55.5765L531.233 54.7547L531.602 53.976L531.972 53.1973L533.227 51.9499L534.483 50.7024L536.228 49.3775L537.973 48.0526L540.231 46.9431L542.489 45.8336L544.234 45.3633L545.979 44.8929L549.571 44.8968L553.164 44.9007L555.206 45.4674L557.247 46.034L559.209 46.8935L561.17 47.7529L563.223 49.1284L565.276 50.504L566.646 51.8607L568.017 53.2173L569.029 54.569L570.04 55.9207L570.878 57.4947L571.716 59.0686L572.345 60.9495L572.975 62.8304L573.278 64.3395L573.581 65.8486L573.79 67.9763L574 70.1039V73.8329V77.5619L573.691 80.2316L573.383 82.9012L572.951 85.0585L572.519 87.2158L571.831 89.5785L571.143 91.9412L570.313 94.0617L569.484 96.1822L568.464 98.2735L567.444 100.365L566.091 102.614L564.739 104.863L563.189 106.992L561.638 109.122L559.967 111.112L558.296 113.103L555.924 115.466L553.552 117.828L551.202 119.827L548.853 121.825L546.595 123.583L544.337 125.342L541.052 127.568L537.768 129.794L534.175 131.947L530.583 134.101L526.865 136.077L523.146 138.054L519.166 139.935L515.186 141.816L510.875 143.705L506.565 145.594L503.123 146.996L499.681 148.398L499.79 149.344L499.898 150.29L500.713 157.686L501.527 165.083L501.762 168.473L501.996 171.862L501.875 175.047L501.753 178.232L501.432 180.673L501.111 183.115L500.598 185.551L500.084 187.987L499.498 189.889L498.913 191.791L498.178 193.696L497.442 195.6L496.279 197.875L495.116 200.151L493.949 201.929L492.782 203.708L491.238 205.557L489.695 207.406L488.171 208.844L486.648 210.282L485.111 211.432L483.573 212.582L482.229 213.427L480.885 214.273L478.534 215.402L476.183 216.53L474.027 217.248L471.872 217.966L469.306 218.479L466.74 218.992L464.379 219.208L462.018 219.423L459.863 219.396L457.707 219.368L455.773 219.197ZM451.717 190.885L454.083 190.287L456.033 189.454L457.983 188.62L459.55 187.692L461.117 186.765L462.286 185.862L463.456 184.959L465.31 183.034L467.165 181.108L468.333 179.347L469.501 177.587L470.628 175.238L471.755 172.89L472.465 170.719L473.174 168.548L473.396 166.955L473.617 165.361V161.473V157.584H473.527H473.436L467.774 160.345L462.111 163.106L460.218 164.184L458.324 165.261L455.86 166.9L453.397 168.538L451.139 170.214L448.881 171.89L447.033 173.435L445.186 174.98L443.612 176.456L442.038 177.932L441.272 179.088L440.505 180.244L440.125 181.465L439.746 182.686V183.676V184.667L440.12 185.867L440.494 187.066L441.039 187.928L441.584 188.79L442.312 189.519L443.041 190.248L443.908 190.691L444.775 191.135L445.288 191.292L445.802 191.448L447.576 191.466L449.35 191.484L451.717 190.885ZM286.506 141.746L287.714 141.522L288.856 140.945L289.998 140.369L291.021 139.524L292.045 138.679L293.971 136.575L295.898 134.47L297.871 132.005L299.845 129.54L301.306 127.382L302.767 125.225L304.156 122.771L305.546 120.318L306.358 118.56L307.169 116.801L307.948 114.85L308.727 112.898L309.383 110.843L310.039 108.789L310.538 106.678L311.036 104.568L311.444 102.056L311.851 99.5434L312.034 96.9112L312.217 94.279L312.034 92.5966L311.852 90.9143L311.127 89.4324L310.402 87.9506L309.521 87.2277L308.64 86.5049L307.63 86.0397L306.62 85.5746L304.772 85.5733L302.925 85.572L301.59 86.2099L300.256 86.8479L298.946 87.8397L297.637 88.8315L295.289 91.0898L292.942 93.348L291.353 95.2127L289.763 97.0774L288.828 98.3101L287.894 99.5428L286.668 101.392L285.442 103.241L284.298 105.296L283.155 107.35L282.237 109.405L281.319 111.459L280.594 113.411L279.868 115.363L279.34 117.109L278.812 118.855L278.31 121.115L277.807 123.375L277.457 125.635L277.107 127.895L277.227 130.874L277.347 133.854L277.579 135.086L277.812 136.319L278.414 137.589L279.017 138.859L279.963 139.693L280.91 140.526L281.992 141.056L283.074 141.586L284.069 141.753L285.065 141.921L285.181 141.945L285.297 141.969L286.506 141.746ZM405.013 116.178L406.074 115.863L407.873 114.646L409.672 113.429L411.157 112.071L412.642 110.712L413.995 109.031L415.348 107.351L416.443 105.501L417.538 103.652L418.353 101.799L419.168 99.9449L419.79 97.9978L420.412 96.0506L420.973 93.5152L421.534 90.9798L421.305 89.3571L421.076 87.7344L420.658 86.9145L420.24 86.0946L419.636 85.7822L419.032 85.4698H418.207H417.382L416.298 85.9562L415.214 86.4427L413.367 87.6715L411.519 88.9002L409.883 90.324L408.246 91.7477L406.829 93.3856L405.411 95.0234L404.388 96.5382L403.364 98.0529L402.278 100.236L401.192 102.42L400.473 104.577L399.754 106.734L399.299 108.868L398.844 111.001L398.968 112.05L399.092 113.1L399.732 114.401L400.372 115.702L401.019 116.097L401.666 116.492L402.809 116.492L403.952 116.493L405.013 116.178ZM153.889 210.577L152.452 210.381L150.81 209.96L149.168 209.538L147.32 208.804L145.473 208.07L143.443 207.055L141.414 206.039L139.543 204.891L137.672 203.743L135.383 202.034L133.094 200.325L131.165 198.421L129.236 196.517L127.987 194.942L126.737 193.366L125.615 191.654L124.492 189.943L122.333 185.936L120.174 181.93L116.99 175.766L113.806 169.603L106.991 155.94L100.176 142.278L96.856 135.858L93.5359 129.438L93.4333 129.439L93.3306 129.44L90.354 135.539L87.3774 141.637L85.2545 145.553L83.1316 149.468L81.0616 152.961L78.9916 156.453L76.3699 160.357L73.7481 164.261L71.9895 166.521L70.2309 168.781L68.0611 171.287L65.8913 173.794L63.0593 176.551L60.2273 179.308L58.3035 180.848L56.3797 182.388L54.5211 183.633L52.6626 184.878L50.5181 186.013L48.3736 187.147L46.427 187.898L44.4805 188.65L43.2452 189.026L42.0099 189.402L40.7782 189.715L39.5465 190.027L37.7012 190.348L35.856 190.669L32.9065 190.879L29.957 191.088L26.6897 190.871L23.4224 190.654L20.4453 190.149L17.4682 189.645L15.6315 189.029L13.7947 188.413L12.5061 187.762L11.2174 187.111L9.67779 186.077L8.13817 185.043L6.68538 183.589L5.2326 182.135L4.14131 180.508L3.05001 178.882L2.26214 177.199L1.47429 175.517L0.957996 173.587L0.441703 171.657L0.220852 169.448L0 167.24L0.224023 164.997L0.448046 162.754L0.843488 161.207L1.23893 159.659L1.88022 158.056L2.52152 156.453L3.14449 155.364L3.76746 154.274L4.94441 152.693L6.12134 151.112L8.83835 148.184L11.5554 145.256H11.7H11.8445L12.2825 145.563L12.7203 145.87L13.4464 147.17L14.1725 148.469L15.1421 149.79L16.1117 151.112L17.3452 152.4L18.5787 153.689L19.6413 154.395L20.7039 155.101L21.7299 155.505L22.7558 155.91L24.199 156.11L25.6422 156.31L27.3596 156.12L29.077 155.929L30.6166 155.501L32.1563 155.073L34.0038 154.352L35.8514 153.632L38.52 152.341L41.1887 151.051L43.4302 149.685L45.6718 148.318L48.0491 146.535L50.4265 144.753L53.2744 141.974L56.1223 139.195L57.8549 137.038L59.5876 134.881L60.9824 132.826L62.3772 130.772L63.9734 127.998L65.5696 125.224L67.7049 121.197L69.8402 117.17L72.0694 112.466L74.2986 107.761L75.9822 103.857L77.6659 99.9537L79.5143 95.331L81.3627 90.7083L82.8814 86.6457L84.4 82.5831L86.0587 77.9139L87.7173 73.2448L89.8681 66.8757L92.0189 60.5067L93.3301 57.8358L94.6413 55.1649L96.5545 51.9804L98.4678 48.7959L99.9159 46.844L101.364 44.8922L102.562 43.5986L103.759 42.3051L105.519 40.9836L107.278 39.6621L108.465 39.0287L109.653 38.3953L111.111 37.899L112.569 37.4026L114.307 37.1711L116.045 36.9396L117.708 37.1829L119.371 37.4262L120.668 37.8972L121.964 38.3682L123.134 39.0621L124.303 39.7559L125.782 41.1478L127.261 42.5397L128.283 44.0241L129.305 45.5086L129.87 46.6313L130.436 47.754L130.914 49.0254L131.392 50.2968L129.851 51.5722L128.311 52.8477L126.64 54.5199L124.969 56.1922L123.417 58.1445L121.865 60.0969L120.59 62.0715L119.314 64.0461L117.784 67.0018L116.255 69.9575L114.985 72.9099L113.715 75.8622L110.741 83.6962L107.767 91.5301L106.679 94.5092L105.59 97.4883L103.223 104.371L100.856 111.254L100.788 111.56L100.721 111.865L101.234 111.816L101.747 111.766L108.932 111.152L116.117 110.538L118.58 110.218L121.044 109.899L123.61 109.375L126.176 108.85L129.02 108.034L131.864 107.217L134.357 106.291L136.851 105.364L140.179 103.726L143.507 102.088L146.235 100.272L148.962 98.4573L150.917 96.8166L152.872 95.176L155.064 92.8873L157.255 90.5985L158.766 88.5907L160.277 86.5829L161.431 84.7157L162.585 82.8485L163.805 80.4094L165.024 77.9702L165.963 75.6075L166.901 73.2448L167.74 70.4712L168.579 67.6976L169.283 64.2049L169.986 60.7122L170.216 57.695L170.446 54.6778L170.22 51.6377L169.995 48.5976L169.481 46.0572L168.967 43.5168L168.231 41.2255L167.496 38.9341L166.423 36.6741L165.351 34.4141L164.469 32.976L163.587 31.5378L162.301 29.8942L161.015 28.2505L158.992 26.278L156.968 24.3054L155.266 23.0486L153.563 21.7918L151.495 20.6199L149.427 19.4479L146.677 18.3448L143.928 17.2417L140.8 16.4497L137.672 15.6577L135.414 15.3358L133.156 15.0139L130.282 14.7736L127.408 14.5332L123.918 14.6584L120.428 14.7836L118.272 15.1067L116.117 15.4298L113.859 15.96L111.601 16.4902L109.24 17.3033L106.879 18.1164L103.8 19.6221L100.721 21.1278L98.8737 22.2989L97.0266 23.4701L95.0761 24.9358L93.1257 26.4015L90.7503 28.7642L88.375 31.1269L87.0205 32.8813L85.666 34.6357L84.5864 36.374L83.5067 38.1123L82.2966 40.6397L81.0864 43.167L80.1954 45.8787L79.3045 48.5904L78.7788 51.0848L78.2531 53.5792L77.9304 56.1184L77.6077 58.6576L77.4837 62.8944L77.3597 67.1312L75.3889 67.2348L73.4182 67.3385L71.2627 67.1652L69.1072 66.992L67.0592 66.4716L65.0112 65.9513L62.9535 64.9373L60.8959 63.9233L59.6033 62.8656L58.3108 61.8081L57.1959 60.4553L56.081 59.1025L55.2642 57.4419L54.4474 55.7813L53.9768 54.1377L53.5061 52.494L53.5125 48.4877L53.5189 44.4814L53.9886 42.3241L54.4582 40.1668L55.3789 37.3932L56.2995 34.6196L57.7095 31.7432L59.1195 28.8669L60.3913 26.9151L61.6631 24.9633L63.0552 23.2169L64.4473 21.4706L66.88 19.092L69.3126 16.7136L71.4046 15.1571L73.4966 13.6006L75.4076 12.4173L77.3187 11.2339L79.6794 10.0318L82.0402 8.82966L84.704 7.77842L87.3678 6.72719L90.144 5.81127L92.9202 4.89533L95.4862 4.18671L98.0523 3.47809L101.132 2.7768L104.211 2.07552L107.29 1.56139L110.369 1.04724L113.141 0.731427L115.912 0.415618L120.274 0.207809L124.636 0L128.981 0.20779L133.326 0.415579L136.012 0.724452L138.698 1.03332L141.264 1.45545L143.83 1.87757L146.91 2.5741L149.989 3.27063L152.863 4.0889L155.737 4.90716L158.508 5.86025L161.279 6.81332L163.948 7.90315L166.617 8.99303L169.524 10.3338L172.432 11.6745L174.554 12.8488L176.676 14.0231L178.686 15.3482L180.696 16.6733L182.792 18.334L184.887 19.9947L187.15 22.2789L189.413 24.5631L191.181 26.9205L192.949 29.2778L194.138 31.2296L195.327 33.1814L196.293 35.236L197.259 37.2905L198.005 39.2955L198.752 41.3006L199.343 43.61L199.935 45.9195L200.259 47.8713L200.583 49.8231L200.82 52.2886L201.058 54.754L200.937 58.2467L200.815 61.7394L200.485 64.1021L200.155 66.4649L199.741 68.4166L199.327 70.3684L198.616 72.9143L197.906 75.4601L196.961 77.9479L196.016 80.4357L194.848 83.0038L193.68 85.572L192.192 88.2429L190.703 90.9138L188.789 93.7901L186.875 96.6665L185.077 98.9265L183.278 101.186L179.977 104.474L176.676 107.761L174.315 109.593L171.954 111.425L169.388 113.109L166.822 114.794L164.153 116.255L161.485 117.715L158.713 118.928L155.942 120.142L153.171 121.172L150.399 122.203L146.807 123.233L143.214 124.262L139.93 124.992L136.645 125.723L132.335 126.435L128.024 127.148L124.431 127.704L120.839 128.261L120.76 128.328L120.681 128.395L124.032 133.384L127.382 138.373L129.223 140.942L131.065 143.51L134.454 147.722L137.843 151.933L141.267 156.042L144.692 160.152L147.746 163.644L150.801 167.137L154.398 170.746L157.995 174.355L159.842 175.599L161.69 176.844L163.538 177.768L165.385 178.693L166.925 179.251L168.464 179.809L170.62 180.322L172.775 180.835L176.676 180.939L180.576 181.042L182.626 180.73L184.676 180.418L184.782 180.522L184.887 180.627L184.954 183.254L185.021 185.88L184.69 187.8L184.359 189.721L183.744 191.558L183.129 193.396L182.165 195.264L181.202 197.133L179.718 199.106L178.234 201.079L176.566 202.649L174.899 204.219L172.77 205.644L170.641 207.069L169.039 207.831L167.438 208.594L165.398 209.283L163.358 209.973L161.703 210.291L160.048 210.609L157.687 210.691L155.326 210.773L153.889 210.577ZM238.979 56.4784L237.439 56.3038L235.694 55.7665L233.949 55.2292L232.615 54.5311L231.281 53.833L229.844 52.7385L228.407 51.644L227.12 50.1175L225.833 48.5909L224.826 46.5364L223.819 44.4819L223.49 43.1132L223.162 41.7446L223.036 40.1133L222.911 38.4821L223.16 36.7761L223.409 35.0701L223.931 33.6124L224.453 32.1547L225.268 30.7528L226.082 29.3508L227.444 27.9052L228.807 26.4596L230.062 25.5632L231.317 24.6668L232.839 23.9454L234.36 23.224L236.002 22.7785L237.645 22.3329L240.416 22.3272L243.187 22.3214L244.57 22.6629L245.953 23.0044L247.561 23.6248L249.168 24.2451L250.591 25.1894L252.014 26.1337L253.41 27.5003L254.806 28.867L255.801 30.4143L256.796 31.9617L257.305 33.188L257.815 34.4142L258.184 35.8524L258.553 37.2905L258.56 39.756L258.567 42.2214L258.299 43.4541L258.03 44.6869L257.507 46.0121L256.983 47.3372L256.28 48.5369L255.578 49.7366L254.319 51.0833L253.06 52.43L251.819 53.3107L250.577 54.1913L249.551 54.7056L248.525 55.2198L246.851 55.7477L245.177 56.2756L243.083 56.4907L240.988 56.7059L240.753 56.6792L240.519 56.6526L238.979 56.4784ZM244.993 52.0859L246.167 51.7799L247.394 51.1599L248.621 50.5399L249.712 49.4477L250.804 48.3555L251.386 47.3611L251.968 46.3668L251.607 46.1024L251.246 45.838L249.502 45.2066L247.758 44.5751L246.365 44.3359L244.972 44.0968L244.14 44.3462L243.308 44.5955L242.694 45.1132L242.079 45.6308L241.544 46.7628L241.009 47.8949L240.614 49.6811L240.219 51.4673L240.215 51.9295L240.21 52.3918H242.015H243.819L244.993 52.0859ZM234.895 48.2492L235.532 46.331L235.629 44.4819L235.726 42.6328L235.248 41.711L234.771 40.7892L233.949 40.2231L233.128 39.6569L231.589 39.2661L230.049 38.8753L228.631 38.7234L227.213 38.5716L227.343 40.1145L227.474 41.6573L228.014 43.1723L228.554 44.6873L228.975 45.4064L229.396 46.1255L230.234 47.2357L231.071 48.346L232.501 49.55L233.93 50.754L234.094 50.4608L234.258 50.1675L234.895 48.2492ZM242.33 41.9373L243.906 40.3173V40.08V39.8428L243.507 39.0611L243.109 38.2794L242.374 37.634L241.64 36.9888L241.1 36.853L240.559 36.7173L239.851 37.0992L239.142 37.4811L238.536 38.2079L237.931 38.9346L238.046 39.551L238.162 40.1673L239.32 41.8623L240.478 43.5573H240.617H240.755L242.33 41.9373ZM254.055 38.7639L253.933 37.1551L253.644 36.0418L253.354 34.9285L252.605 33.4389L251.855 31.9492L250.395 30.4942L248.935 29.0393L247.536 28.2603L246.136 27.4813L244.662 26.9593L243.187 26.4374L241.032 26.4216L238.876 26.4057L237.747 26.6805L236.618 26.9553L234.713 27.8674L232.809 28.7795L231.509 30.0562L230.209 31.3329L229.667 32.4046L229.125 33.4765V33.5562V33.6359L234.103 33.7487L239.082 33.8615L240.724 34.2072L242.366 34.5528L243.392 34.979L244.419 35.4052L245.958 36.3074L247.498 37.2097L250.678 39.4779L253.858 41.7461L254.018 41.0594L254.177 40.3728L254.055 38.7639Z" fill="black"/>
</svg>
