<svg width="124" height="73" viewBox="0 0 124 73" fill="none" xmlns="http://www.w3.org/2000/svg">
<path d="M28.0654 72.7872L27.3136 72.614L26.8935 72.4965L26.4734 72.3789L25.9869 72.1924L25.5005 72.006L25.0361 71.7737L24.5718 71.5414L24.1959 71.2973L23.82 71.0532L23.5547 70.852L23.2894 70.6508L22.8535 70.228L22.4177 69.805L22.1634 69.4955L21.9091 69.1859L21.5882 68.6995L21.2673 68.2131L21.011 67.6824L20.7547 67.1517L20.5938 66.7171L20.433 66.2826L20.2845 65.7664L20.136 65.2502L20.0235 64.6974L19.9109 64.1446L19.8433 63.6803L19.7757 63.2159L19.7308 62.7074L19.686 62.1988L19.6857 61.3586L19.6854 60.5184L19.7309 60.0098L19.7764 59.5013L19.8866 58.8325L19.9968 58.1638L20.1285 57.6245L20.2602 57.0852L20.4618 56.4683L20.6634 55.8515L20.8805 55.3232L21.0977 54.795L21.3039 54.3842L21.51 53.9735L21.7758 53.5313L22.0416 53.089L22.3112 52.7132L22.5808 52.3373L22.9616 51.8932L23.3424 51.4492L23.7396 51.0849L24.1367 50.7207L24.4869 50.4501L24.837 50.1794L25.277 49.892L25.7169 49.6045L26.2056 49.3483L26.6944 49.0921L27.0703 48.9312L27.4461 48.7703L28.0008 48.5798L28.5555 48.3894L28.9737 48.2766L29.3919 48.1639L29.9226 48.0533L30.4533 47.9427L31.0945 47.8548L31.7357 47.7669L32.3106 47.7098L32.8855 47.6527L34.1679 47.6525L35.4504 47.6522L35.9589 47.7078L36.4675 47.7635L36.9903 47.8519L37.5131 47.9403L38.0074 48.0682L38.5017 48.1962L38.8997 48.3348L39.2977 48.4734L39.9168 48.774L40.5359 49.0745L41.0003 49.3823L41.4646 49.6902L41.8626 50.0228L42.2606 50.3554L42.593 50.7051L42.9255 51.0548L43.2041 51.421L43.4827 51.7871L43.7084 52.1506L43.9341 52.5141L44.1908 53.0448L44.4475 53.5755L44.6438 54.1725L44.8401 54.7695L44.9524 55.3456L45.0648 55.9217L45.1168 56.5396L45.1688 57.1575L45.1406 57.8208L45.1124 58.4841L45.0277 59.0604L44.9429 59.6367L44.8259 60.166L44.7088 60.6953L44.4936 61.3448L44.2784 61.9944L44.0558 62.4504L43.8332 62.9064L43.5749 63.3044L43.3167 63.7024L42.9783 64.1052L42.6399 64.508L42.2734 64.8183L41.9068 65.1286L41.5245 65.3771L41.1421 65.6256L40.8506 65.7564L40.5592 65.8872L40.2013 66.0002L39.8435 66.1132L39.438 66.179L39.0324 66.2448L38.5459 66.2447L38.0595 66.2446L37.6173 66.1781L37.175 66.1115L36.8518 66.023L36.5286 65.9344L36.3101 65.8237L36.0916 65.713L35.6825 65.4332L35.2735 65.1533L34.8801 64.8824L34.4867 64.6115L34.2627 64.7981L34.0387 64.9848L33.7593 65.2319L33.4799 65.4791L33.1471 65.6695L32.8144 65.8599L32.5183 65.9686L32.2221 66.0772L31.8905 66.1376L31.5588 66.1978L31.205 66.1992H30.8513L30.5417 66.1552L30.2321 66.1112L29.8841 66.0217L29.536 65.9323L29.265 65.8183L28.9939 65.7043L28.7065 65.5159L28.419 65.3275L28.2266 65.1392L28.0343 64.9509L27.8349 64.6805L27.6356 64.41L27.5065 64.1545L27.3773 63.899L27.2459 63.5069L27.1146 63.1148L27.0232 62.5905L26.9319 62.0662L26.9069 61.3808L26.882 60.6953L26.9341 60.2089L26.9861 59.7224L27.098 59.219L27.21 58.7156L27.3647 58.2711L27.5195 57.8266L27.7156 57.4069L27.9117 56.9872L28.2054 56.5417L28.4991 56.0962L28.9897 55.6073L29.4804 55.1184L29.8341 54.8857L30.1879 54.653L30.5859 54.4587L30.9839 54.2644L31.3908 54.132L31.7977 53.9997L32.2752 53.9061L32.7528 53.8125L33.4383 53.7878L34.1237 53.7632L34.6101 53.8151L35.0966 53.867L35.4669 53.9539L35.8372 54.0408L36.1477 54.2039L36.4581 54.3671L36.7294 54.6384L37.0007 54.9097L37.1661 55.2376L37.3315 55.5655L37.3962 55.8751L37.4609 56.1846L37.4612 56.5826L37.4615 56.9806L37.4161 57.5113L37.3706 58.042L37.2169 59.254L37.0632 60.466L36.9996 60.7133L36.936 60.9606L36.888 61.3508L36.84 61.741L36.8847 61.983L36.9295 62.2249L37.0011 62.376L37.0728 62.527L37.2709 62.7096L37.469 62.8922L37.6992 62.9976L37.9293 63.103L38.2411 63.1472L38.5528 63.1914L38.8205 63.1483L39.0882 63.1052L39.2708 63.0408L39.4534 62.9763L39.6515 62.84L39.8496 62.7038L40.0865 62.4071L40.3234 62.1104L40.5009 61.8451L40.6784 61.5798L40.8009 61.3375L40.9234 61.0953L41.0076 60.8511L41.0918 60.6069L41.1588 60.0541L41.2258 59.5013L41.2513 58.4621L41.2769 57.4229L41.2264 56.8701L41.1759 56.3173L41.1066 55.8972L41.0373 55.4771L40.8885 55.0273L40.7396 54.5775L40.5989 54.2976L40.4582 54.0178L40.2622 53.7137L40.0662 53.4097L39.6235 52.9548L39.1809 52.4999L38.7971 52.2261L38.4132 51.9524L37.7941 51.6479L37.175 51.3433L36.7065 51.1911L36.238 51.0389L35.7115 50.9284L35.185 50.8179L34.7241 50.765L34.2632 50.7121L33.2868 50.7349L32.3105 50.7578L31.7907 50.8503L31.2708 50.9429L30.8364 51.053L30.402 51.1631L29.9497 51.3205L29.4974 51.478L29.063 51.6706L28.6286 51.8632L28.199 52.1099L27.7694 52.3567L27.4138 52.6123L27.0582 52.868L26.686 53.1939L26.3138 53.5199L26.0082 53.8729L25.7027 54.2259L25.4415 54.6083L25.1802 54.9906L24.9011 55.4763L24.6219 55.962L24.3831 56.4934L24.1443 57.0249L23.9495 57.6071L23.7547 58.1894L23.6238 58.8453L23.4928 59.5013L23.4404 60.0541L23.388 60.6069L23.4141 61.3587L23.4402 62.1104L23.5273 62.6853L23.6145 63.2602L23.7255 63.728L23.8365 64.1957L23.9988 64.7009L24.1611 65.206L24.3608 65.7145L24.5605 66.2231L24.7149 66.5326L24.8693 66.8422L25.0734 67.1518L25.2776 67.4613L25.6322 67.8331L25.9867 68.205L26.3309 68.4615L26.6751 68.7181L27.0718 68.9167L27.4686 69.1153L27.9438 69.2681L28.419 69.4208L28.8391 69.4896L29.2592 69.5585L29.6793 69.5871L30.0994 69.6156L30.608 69.565L31.1165 69.5143L31.4913 69.426L31.8661 69.3377L32.1954 69.16L32.5247 68.9824L32.882 68.6978L33.2392 68.4131L33.5885 68.1272L33.9378 67.8413L34.2297 67.6885L34.5216 67.5358L34.7192 67.4832L34.9167 67.4306L35.2463 67.432L35.5759 67.4334L35.8977 67.5924L36.2194 67.7514L36.3778 67.9365L36.5362 68.1215L36.6405 68.3443L36.7447 68.567L36.794 68.8014L36.8433 69.0357V69.2918V69.5479L36.7561 69.8889L36.6689 70.2298L36.5132 70.5261L36.3575 70.8224L36.1692 71.0516L35.981 71.2809L35.7038 71.5032L35.4266 71.7254L35.1488 71.8808L34.871 72.0362L34.5415 72.1725L34.2121 72.3088L33.7886 72.435L33.3652 72.5611L32.4686 72.7641L31.572 72.9671L30.1945 72.9638L28.817 72.9605L28.0654 72.7872ZM32.2134 62.6185L32.5012 62.5295L32.7622 62.3374L33.0233 62.1453L33.2358 61.8625L33.4484 61.5797L33.6211 61.2364L33.7937 60.893L33.9231 60.3633L34.0524 59.8336L34.1428 59.2915L34.2332 58.7495L34.2802 58.3294L34.3271 57.9093L34.2998 57.6882L34.2725 57.467L34.2084 57.2651L34.1442 57.0632L33.9792 56.9062L33.8142 56.7491L33.6639 56.699L33.5136 56.6489H33.3093H33.1049L32.7749 56.7404L32.4448 56.8319L32.1392 56.9925L31.8335 57.1531L31.4751 57.4926L31.1167 57.8321L30.95 58.1139L30.7833 58.3957L30.6502 58.7405L30.517 59.0853L30.2914 59.8903L30.0658 60.6953L30.1359 61.1193L30.206 61.5434L30.3025 61.8012L30.399 62.059L30.5786 62.2539L30.7583 62.4488L30.8813 62.5125L31.0044 62.5761L31.2374 62.6388L31.4705 62.7016L31.698 62.7045L31.9255 62.7074L32.2134 62.6185ZM54.906 69.5605L54.5057 69.5275L53.9994 69.4307L53.4931 69.3338L52.9625 69.1578L52.4318 68.9818L51.8986 68.7206L51.3655 68.4594L50.8815 68.1393L50.3976 67.8192L49.886 67.3085L49.3744 66.7979L49.0795 66.3524L48.7847 65.9069L48.5903 65.4901L48.3959 65.0733L48.2618 64.6532L48.1276 64.233L48.038 63.7687L47.9484 63.3044L47.8937 62.8179L47.8389 62.3315L47.843 59.8464L47.847 57.3614L47.6873 57.3478L47.5276 57.3343L47.5364 57.0911L47.5452 56.8478L47.5906 55.4548L47.636 54.0618L47.68 53.2879L47.724 52.5141L47.7925 51.8124L47.8611 51.1107L47.9454 50.7809L48.0297 50.4511L48.1523 50.2252L48.2749 49.9992L48.4826 49.7715L48.6904 49.5439L48.9515 49.4047L49.2127 49.2655L49.5177 49.1936L49.8227 49.1218L50.3091 49.1451L50.7956 49.1683L51.0609 49.2391L51.3262 49.3099L51.5916 49.4394L51.8569 49.569L52.03 49.737L52.2031 49.9049L52.3268 50.0989L52.4505 50.2929L52.5253 50.6287L52.6 50.9645L52.5727 52.9554L52.5455 54.9463L52.4952 57.4006L52.445 59.8549L52.4724 60.5625L52.4998 61.2701L52.5459 61.7565L52.5919 62.2429L52.679 62.6188L52.7661 62.9947L52.9437 63.3543L53.1213 63.7138L53.362 63.9798L53.6028 64.2458L53.8489 64.4092L54.095 64.5725L54.4374 64.6975L54.7798 64.8225L55.1502 64.8766L55.5206 64.9308L55.9441 64.9032L56.3676 64.8755L56.6329 64.8046L56.8982 64.7337L57.252 64.5507L57.6058 64.3677L57.9164 64.0571L58.227 63.7465L58.4117 63.3902L58.5964 63.0339L58.6981 62.6827L58.7998 62.3314L58.7954 60.8942L58.7911 59.4569L58.6871 57.5554L58.5832 55.6538L58.5809 53.6638L58.5787 51.6738L58.6396 51.2095L58.7005 50.7452L58.7817 50.4798L58.8629 50.2145L58.99 50.0155L59.1171 49.8165L59.2616 49.6765L59.406 49.5365L59.6598 49.4012L59.9136 49.2659L60.1969 49.1992L60.4802 49.1324L61.0139 49.1317L61.5476 49.131L61.7878 49.2022L62.028 49.2735L62.2452 49.3835L62.4623 49.4934L62.6749 49.7117L62.8876 49.93L63.0652 50.2933L63.2428 50.6566L63.3591 51.0989L63.4754 51.5411L63.4886 54.106L63.5019 56.6709L63.4616 58.484L63.4214 60.2971L63.3773 60.8941L63.3332 61.4911L63.2638 62.1986L63.1944 62.9062L63.0846 63.459L62.9749 64.0118L62.8169 64.4761L62.6588 64.9404L62.4641 65.3488L62.2694 65.7573L61.9078 66.2996L61.5462 66.842L61.0353 67.3505L60.5245 67.8591L60.1043 68.1579L59.6842 68.4567L59.0651 68.7639L58.446 69.0711L58.0259 69.2056L57.6058 69.3401L57.1857 69.4266L56.7656 69.5131L56.2349 69.559L55.7042 69.6049L55.5052 69.5992L55.3062 69.5933L54.906 69.5605ZM96.654 69.277L96.3445 69.2158L96.0593 69.0974L95.774 68.979L95.4378 68.81L95.1015 68.6409L94.7059 68.376L94.3102 68.111L93.9565 67.8037L93.6027 67.4963L93.1605 66.9982L92.7182 66.5002L92.2539 65.9189L91.7896 65.3377L91.1987 64.5863L90.6079 63.835L89.7836 63.0249L88.9594 62.2147L88.932 62.6932L88.9047 63.1717L88.9439 63.9898L88.9831 64.8079L89.0089 66.024L89.0348 67.2402L88.9655 67.5642L88.8963 67.8883L88.7865 68.1282L88.6767 68.3681L88.454 68.6035L88.2313 68.839L87.9983 68.956L87.7654 69.073L87.4779 69.1481L87.1905 69.2232L86.6598 69.2216L86.1291 69.2201L85.8417 69.1441L85.5542 69.068L85.2889 68.9284L85.0236 68.7888L84.8246 68.5866L84.6256 68.3844L84.5042 68.1363L84.3829 67.8881L84.3169 67.6084L84.251 67.3287L84.2503 66.5016L84.2496 65.6745L84.3207 64.1357L84.3918 62.5969L84.3652 60.8059L84.3386 59.0149L84.2741 57.5114L84.2095 56.0078L84.1577 54.7132L84.1059 53.4185L84.1293 52.6568L84.1528 51.8951L84.2446 51.5309L84.3364 51.1667L84.4524 50.8897L84.5685 50.6127L84.7634 50.3184L84.9584 50.0241L85.2268 49.7756L85.4952 49.5271L85.8245 49.3343L86.1539 49.1415L86.5616 49.0066L86.9693 48.8716L87.4115 48.7826L87.8537 48.6936L88.3402 48.625L88.8266 48.5565L89.3131 48.5122L89.7995 48.468L90.6903 48.4679L91.5811 48.4679L92.0391 48.5132L92.4971 48.5584L93.0206 48.6455L93.5441 48.7327L94.0156 48.8482L94.4871 48.9638L94.9406 49.1121L95.3941 49.2604L95.8029 49.4581L96.2117 49.6558L96.5512 49.8804L96.8907 50.105L97.2555 50.4473L97.6202 50.7896L97.868 51.1229L98.1157 51.4561L98.3018 51.8139L98.488 52.1717L98.6398 52.6304L98.7917 53.0891L98.8612 53.5092L98.9307 53.9294L98.9589 54.4379L98.987 54.9465L98.9353 55.5656L98.8837 56.1847L98.795 56.6216L98.7063 57.0585L98.5717 57.4839L98.4371 57.9094L98.2164 58.3629L97.9957 58.8164L97.7549 59.1521L97.514 59.4878L97.3051 59.7298L97.0962 59.9719L96.7866 60.228L96.4771 60.4841L96.1896 60.67L95.9022 60.8559L95.5926 61.0044L95.2831 61.1528L94.8187 61.3597L94.3544 61.5666L94.3183 61.6004L94.2822 61.6343L94.849 62.075L95.4157 62.5158L96.0348 62.9808L96.6539 63.4457L97.45 63.9768L98.2459 64.5078L98.5623 64.7603L98.8787 65.0128L99.0865 65.2773L99.2943 65.5418L99.4203 65.7941L99.5464 66.0463L99.6141 66.3337L99.6819 66.6211L99.6817 66.8201L99.6816 67.0191L99.6166 67.3287L99.5516 67.6382L99.3894 67.9699L99.2271 68.3016L98.9353 68.589L98.6434 68.8765L98.3784 69.016L98.1133 69.1555L97.8748 69.2255L97.6363 69.2955L97.2999 69.3169L96.9635 69.3383L96.654 69.277ZM91.8747 58.5303L92.2816 58.4271L92.6394 58.2472L92.9971 58.0674L93.27 57.8402L93.543 57.6131L93.7451 57.3411L93.9473 57.069L94.0956 56.7514L94.2438 56.4338L94.332 56.066L94.4202 55.6982V55.2321V54.766L94.3525 54.506L94.2848 54.246L94.1424 53.9771L94.0001 53.7082L93.7292 53.4402L93.4584 53.1722L93.1515 53.0109L92.8446 52.8497L92.4495 52.7182L92.0543 52.5868L91.7134 52.5173L91.3726 52.4478H90.9134H90.4543L90.1206 52.5332L89.787 52.6185L89.4792 52.7735L89.1713 52.9285L89.0297 53.0477L88.888 53.1669L88.7765 53.3871L88.6649 53.6072L88.6201 54.0115L88.5752 54.4157L88.5725 55.5213L88.5698 56.6268L88.6381 56.9806L88.7064 57.3344L88.8059 57.5975L88.9054 57.8607L89.1753 58.1339L89.4452 58.407L89.6984 58.4999L89.9516 58.5927L90.2291 58.6353L90.5065 58.6778L90.9868 58.6557L91.4671 58.6336L91.8747 58.5303ZM73.9459 69.1193L73.57 69.0804L73.1278 69.0075L72.6856 68.9345L72.1841 68.8057L71.6826 68.6769L71.2327 68.501L70.7829 68.3251L70.3887 68.1223L69.9946 67.9194L69.5278 67.6019L69.061 67.2844L68.623 66.8643L68.1849 66.4442L67.9071 66.0887L67.6293 65.7331L67.3968 65.359L67.1643 64.9848L66.9766 64.584L66.7889 64.1831L66.6277 63.7216L66.4664 63.2602L66.3619 62.8179L66.2573 62.3757L66.1834 61.9114L66.1095 61.447L66.0866 60.2002L66.0638 58.9533L66.1145 58.2323L66.1653 57.5113L66.2548 56.8922L66.3444 56.273L66.4579 55.7645L66.5713 55.2559L66.7633 54.6743L66.9552 54.0926L67.1523 53.654L67.3494 53.2154L67.5853 52.8091L67.8211 52.4028L68.1086 51.996L68.396 51.5893L68.794 51.1722L69.192 50.7551L69.5016 50.5035L69.8111 50.2519L70.1428 50.0313L70.4745 49.8108L70.7642 49.6506L71.054 49.4904L71.5471 49.2884L72.0401 49.0865L72.544 48.9566L73.0479 48.8266L73.5522 48.7486L74.0565 48.6706L74.9188 48.6714L75.7811 48.6722L76.2897 48.7489L76.7982 48.8255L77.2847 48.9402L77.7711 49.0549L78.3239 49.2438L78.8767 49.4328L79.2208 49.5896L79.5649 49.7465L79.9338 49.9869L80.3027 50.2274L80.5559 50.4806L80.8091 50.7338L81.0234 51.062L81.2376 51.3903L81.3318 51.642L81.426 51.8937L81.4904 52.1376L81.5549 52.3815L81.5799 52.7131L81.605 53.0448L81.5347 53.3765L81.4643 53.7081L81.3291 53.9834L81.1939 54.2586L80.964 54.5105L80.734 54.7623L80.5129 54.903L80.2918 55.0437L80.0265 55.1456L79.7611 55.2474L79.3631 55.2488L78.9651 55.2501L78.744 55.1711L78.5229 55.0921L78.2598 54.9334L77.9968 54.7747L77.5265 54.3261L77.0563 53.8775L76.8525 53.7373L76.6487 53.5971L76.2877 53.4225L75.9267 53.248L75.5938 53.1739L75.2608 53.0998L74.725 53.1242L74.1891 53.1487L73.9238 53.2356L73.6585 53.3225L73.4816 53.3989L73.3047 53.4753L73.0008 53.6718L72.6969 53.8683L72.4536 54.0978L72.2103 54.3274L72.0139 54.582L71.8176 54.8366L71.6246 55.2011L71.4316 55.5656L71.2089 56.229L70.9862 56.8923L70.8654 57.4672L70.7447 58.0421L70.7422 58.9929L70.7398 59.9436L70.8404 60.4402L70.9411 60.9367L71.0972 61.3909L71.2532 61.8452L71.4567 62.2597L71.6601 62.6742L71.9118 63.0115L72.1635 63.3487L72.4245 63.5943L72.6856 63.8399L72.8989 63.9856L73.1123 64.1315L73.4489 64.287L73.7854 64.4425L74.1863 64.5252L74.5871 64.6079H74.8798H75.1725L75.5432 64.543L75.9138 64.4781L76.2376 64.3677L76.5614 64.2572L76.8788 64.1044L77.1962 63.9515L78.1028 63.3441L79.0093 62.7366L79.2081 62.6483L79.4069 62.56L79.6282 62.501L79.8496 62.4421H80.1622H80.4747L80.7149 62.5125L80.9551 62.583L81.1824 62.712L81.4098 62.841L81.5894 63.0154L81.7691 63.1897L81.9031 63.424L82.0371 63.6582L82.1103 63.9865L82.1836 64.3149L82.1568 64.7162L82.13 65.1175L82.0431 65.4555L81.9562 65.7935L81.8144 66.0746L81.6727 66.3557L81.5052 66.6026L81.3378 66.8495L81.0636 67.1212L80.7894 67.3928L80.3942 67.6635L79.999 67.9342L79.4157 68.213L78.8325 68.4919L78.3239 68.6551L77.8153 68.8184L77.3068 68.923L76.7982 69.0276L76.4445 69.0746L76.0907 69.1215L75.2062 69.1398L74.3218 69.1581L73.9459 69.1193ZM98.183 47.1804L97.7662 47.1434L97.2497 47.0543L96.7332 46.9651L96.2249 46.8332L95.7167 46.7012L95.326 46.5633L94.9353 46.4254L94.5574 46.2508L94.1795 46.0762L93.67 45.7375L93.1605 45.3987L92.6941 44.9322L92.2278 44.4657L91.9328 44.0216L91.6378 43.5774L91.4394 43.1585L91.2409 42.7395L91.1063 42.3274L90.9716 41.9154L90.8848 41.488L90.7979 41.0606L90.7461 40.5299L90.6942 39.9993L90.7209 39.4671L90.7475 38.9348L90.8394 38.4588L90.9313 37.9827L91.0664 37.598L91.2015 37.2133L91.4251 36.7766L91.6487 36.3399L91.913 35.9806L92.1772 35.6213L92.5606 35.2454L92.944 34.8695L93.2172 34.6705L93.4904 34.4715L93.9887 34.1698L94.4871 33.868L95.8138 33.2106L97.1405 32.5532L99.1526 31.6497L101.165 30.7462L101.408 30.6687L101.651 30.5912L101.686 30.5591L101.722 30.527L101.387 29.0278L101.052 27.5286L100.791 26.5115L100.53 25.4944L100.103 24.035L99.6752 22.5757L99.6636 22.5638L99.652 22.5519L98.8412 23.9789L98.0305 25.4059L97.5696 26.1798L97.1087 26.9537L96.655 27.64L96.2014 28.3263L95.7393 28.9446L95.2772 29.5628L94.7726 30.1598L94.268 30.7568L93.6037 31.4241L92.9393 32.0914L92.4545 32.5038L91.9697 32.9163L91.3932 33.3455L90.8166 33.7748L90.3744 34.0615L89.9322 34.3481L89.4015 34.6498L88.8708 34.9515L88.4137 35.1676L87.9566 35.3837L87.4408 35.5553L86.925 35.727L86.4728 35.8185L86.0206 35.91L85.4373 35.9567L84.854 36.0035L84.2446 35.9556L83.6351 35.9077L83.2679 35.8397L82.9008 35.7717L82.4144 35.6435L81.9279 35.5153L81.6184 35.3988L81.3088 35.2823L80.9567 35.0992L80.6045 34.9161L80.2712 34.6671L79.9379 34.4181L79.645 34.1121L79.3521 33.8062L79.1002 33.4197L78.8483 33.0333L78.6954 32.7024L78.5425 32.3715L78.4096 31.9648L78.2767 31.5581L78.1691 31.0248L78.0615 30.4915L78.0108 29.8724L77.9602 29.2533L77.9155 29.1317L77.8709 29.01H77.839H77.8071L77.3345 29.7192L76.862 30.4285L75.93 31.5133L74.9981 32.5981L74.4997 33.1389L74.0014 33.6797L73.5424 34.1121L73.0835 34.5444L72.6621 34.8266L72.2406 35.1089L71.8948 35.2665L71.549 35.4241L71.1001 35.5808L70.6513 35.7376L70.209 35.8452L69.7668 35.9528L69.3892 35.9529L69.0115 35.9529L68.7513 35.8851L68.491 35.8173L68.2666 35.6972L68.0422 35.577L67.7326 35.2671L67.423 34.9571L67.2265 34.6085L67.03 34.2599L66.8624 33.768L66.6948 33.2761L66.5642 32.6577L66.4335 32.0393L66.3466 31.2954L66.2596 30.5516L66.2439 30.5358L66.2281 30.52L65.5351 31.3902L64.842 32.2604L64.4079 32.7326L63.9737 33.2049L63.5757 33.5681L63.1777 33.9313L62.8441 34.1854L62.5105 34.4395L62.1265 34.6898L61.7425 34.9401L61.244 35.1796L60.7455 35.4191L60.2758 35.5728L59.8061 35.7264L59.3434 35.8157L58.8806 35.905L58.2728 35.9574L57.665 36.0098L57.0913 35.9574L56.5176 35.905L56.0903 35.794L55.663 35.6829L55.3025 35.514L54.9419 35.345L54.6818 35.1683L54.4217 34.9916L54.1902 34.7833L53.9587 34.575L53.6917 34.2208L53.4248 33.8665L53.2289 33.4614L53.033 33.0564L52.9195 32.7055L52.8059 32.3545L52.7208 31.9316L52.6357 31.5086L52.5903 31L52.5449 30.4915L52.5149 29.9055L52.4848 29.3196H52.4511H52.4175L52.297 29.4633L52.1764 29.607L50.8038 31.1106L49.4311 32.6141L48.4771 33.5679L47.523 34.5216L47.2135 34.768L46.9039 35.0144L46.5686 35.2171L46.2333 35.4199L45.9075 35.5585L45.5817 35.6972L45.1594 35.8084L44.737 35.9197L44.0643 35.9416L43.3916 35.9636L43.0251 35.9118L42.6586 35.86L42.3269 35.7715L41.9953 35.683L41.6294 35.5067L41.2635 35.3303L40.9661 35.0496L40.6686 34.769L40.5016 34.4876L40.3347 34.2062L40.2247 33.8594L40.1147 33.5127L40.0659 32.9529L40.0172 32.393L40.0425 31.2654L40.0678 30.1377L40.136 29.5849L40.2042 29.0321L40.3192 28.3909L40.4342 27.7497L40.6023 27.0864L40.7704 26.423L40.9569 25.8482L41.1434 25.2733L41.376 24.6763L41.6086 24.0793L41.9291 23.3496L42.2497 22.6199L42.7807 21.4702L43.3116 20.3204L44.5268 17.7997L45.742 15.279L46.0541 14.6157L46.3663 13.9524L46.4908 13.7684L46.6153 13.5845L46.7616 13.494L46.908 13.4035L47.0875 13.3748L47.2671 13.3461L47.7488 13.5099L48.2306 13.6736L48.8276 13.9156L49.4246 14.1576L49.6678 14.295L49.911 14.4323L50.1705 14.6065L50.4299 14.7808L50.6001 14.951L50.7704 15.1212L50.8787 15.2929L50.987 15.4645L51.0571 15.7004L51.1272 15.9363L51.1265 16.2268L51.1258 16.5173L51.0599 16.7968L50.994 17.0764L49.915 19.9587L48.836 22.841L48.3181 24.2561L47.8002 25.6713L47.2589 27.1748L46.7177 28.6784L46.6621 28.9128L46.6065 29.1472L46.6081 29.4296L46.6098 29.7119L46.6942 29.9027L46.7786 30.0935L46.9361 30.2318L47.0936 30.3701L47.2964 30.4475L47.4993 30.525L47.7146 30.5043L47.93 30.4836L48.1245 30.3891L48.319 30.2947L48.5737 30.0835L48.8285 29.8724L49.3647 29.2975L49.9009 28.7226L50.3644 28.1698L50.8279 27.617L51.2628 27.0366L51.6976 26.4562L52.1586 25.7542L52.6197 25.0521L52.9957 24.3888L53.3716 23.7255L53.6406 23.1879L53.9096 22.6504L54.1149 22.1929L54.3201 21.7355L54.71 20.9395L55.0998 20.1435L55.3972 19.6128L55.6945 19.0821L56.069 18.5087L56.4434 17.9352L56.7805 17.4916L57.1177 17.0479L57.7818 16.3819L58.4459 15.716L58.8238 15.4248L59.2017 15.1335L59.7082 14.7948L60.2148 14.456L60.8339 14.1508L61.453 13.8457L61.851 13.7159L62.249 13.5862L62.6249 13.504L63.0007 13.4217L63.9073 13.4247L64.8139 13.4276L65.3224 13.5634L65.831 13.6993L66.1626 13.8515L66.4943 14.0038L66.8629 14.2325L67.2314 14.4612L67.9021 14.9389L68.5727 15.4166L68.7151 15.5003L68.8575 15.5839L68.8792 15.5622L68.901 15.5404L69.5895 14.0894L70.2779 12.6384L70.7608 11.6813L71.2437 10.7242L71.5833 10.1271L71.9228 9.53015L72.2924 8.96508L72.6619 8.40001L73.0026 7.94797L73.3432 7.49592L73.6768 7.09793L74.0104 6.69993L74.4756 6.21816L74.9408 5.73639L75.3388 5.40308L75.7368 5.06978L76.0905 4.83986L76.4443 4.60995L76.7981 4.43335L77.1519 4.25675L77.4732 4.14131L77.7945 4.02586L78.2471 3.93352L78.6996 3.84118L79.2782 3.84035L79.8568 3.83952L80.2511 3.9124L80.6454 3.98527L80.955 4.07573L81.2645 4.1662L81.5877 4.31478L81.9109 4.46335L82.2068 4.66116L82.5028 4.85896L82.7526 5.11613L83.0025 5.3733L83.2058 5.67989L83.4091 5.98647L83.5372 6.32111L83.6654 6.65574L83.742 7.0039L83.8186 7.35206L83.7957 7.60479L83.7728 7.85751L83.7029 7.99266L83.633 8.1278L83.4949 8.26591L83.3568 8.40401L82.6644 8.86236L81.9721 9.32071L81.4414 9.71533L80.9108 10.11L80.3801 10.5524L79.8494 10.9948L79.2524 11.5498L78.6554 12.1049L78.095 12.7191L77.5345 13.3333L77.2393 13.6871L76.944 14.0409L76.4886 14.644L76.0333 15.2471L75.6583 15.8159L75.2833 16.3846L74.9218 17.0037L74.5603 17.6229L74.21 18.3142L73.8597 19.0056L73.5749 19.6474L73.29 20.2892L73.0042 21.0345L72.7185 21.7797L72.4918 22.473L72.2652 23.1662L72.0702 23.8713L71.8751 24.5763L71.7165 25.259L71.558 25.9417L71.4891 26.4035L71.4202 26.8653L71.3948 27.993L71.3694 29.1206L71.4222 29.3736L71.475 29.6265L71.6086 29.8938L71.7422 30.1611L71.8919 30.2753L72.0416 30.3895L72.2577 30.3878L72.4739 30.3861L72.7516 30.2926L73.0294 30.199L73.3306 30.0473L73.6318 29.8956L73.9245 29.6218L74.2173 29.3479L74.7514 28.6815L75.2855 28.0151L75.7809 27.3517L76.2762 26.6884L76.764 25.9809L77.2518 25.2733L77.5828 24.7426L77.9138 24.212L78.2758 23.5929L78.6378 22.9738L79.1109 22.023L79.5841 21.0722L79.9366 20.3204L80.2892 19.5686L80.5924 18.9976L80.8956 18.4266L81.1656 17.994L81.4357 17.5614L81.7889 17.0873L82.1422 16.6131L82.5878 16.1504L83.0334 15.6877L83.4756 15.3318L83.9179 14.9759L84.3822 14.6692L84.8465 14.3626L85.3772 14.1059L85.9079 13.8492L86.317 13.7137L86.7261 13.5782L87.1793 13.4802L87.6325 13.3823L88.517 13.3821L89.4014 13.382L89.9568 13.4999L90.5121 13.6178L90.9705 13.7774L91.4289 13.9369L91.7418 14.0945L92.0547 14.2521L92.3864 14.4735L92.7181 14.6949L93.094 15.0785L93.4699 15.4621L93.6862 15.8242L93.9025 16.1863L94.0473 16.5729L94.1921 16.9595L94.264 17.3092L94.3358 17.6589L94.3741 18.1714L94.4124 18.684L94.3734 19.2337L94.3344 19.7834L94.241 20.3394L94.1477 20.8953L94.0007 21.4705L93.8538 22.0457L93.6681 22.5539L93.4824 23.0622L93.2035 23.6371L92.9245 24.212L92.6725 24.6099L92.4204 25.0078L92.1145 25.4147L91.8087 25.8215L91.3588 26.2928L90.9088 26.7641L90.4868 27.1174L90.0648 27.4707L89.556 27.8117L89.0472 28.1527L88.5868 28.4111L88.1265 28.6695L87.7152 28.8165L87.3039 28.9635L86.6059 29.144L85.9079 29.3246L85.7447 29.3673L85.5816 29.41L85.6494 29.6412L85.7173 29.8724L85.8328 30.0864L85.9483 30.3004L86.1825 30.5144L86.4166 30.7284L86.6638 30.8454L86.9111 30.9623L87.2276 31.03L87.5441 31.0977L88.0748 31.0999L88.6054 31.1021L88.8929 31.049L89.1803 30.9959L89.4678 30.9038L89.7552 30.8117L90.0869 30.6519L90.4185 30.4921L90.7121 30.2707L91.0057 30.0493L91.7092 29.4009L92.4127 28.7524L93.0572 28.089L93.7018 27.4256L94.2543 26.7825L94.8068 26.1395L95.1828 25.64L95.5587 25.1406L95.89 24.6542L96.2212 24.1678L96.6024 23.5387L96.9835 22.9096L97.3908 22.1678L97.798 21.426L98.3818 20.232L98.9655 19.038L99.6072 17.6429L100.249 16.2478L100.451 15.9052L100.654 15.5626L100.897 15.2395L101.14 14.9165L101.477 14.5969L101.813 14.2772L102.195 14.0281L102.578 13.779L102.954 13.618L103.331 13.4569L103.685 13.3644L104.039 13.2719L104.409 13.2194L104.779 13.1669L105.559 13.1913L106.339 13.2157L106.692 13.3044L107.046 13.3931L107.264 13.4866L107.482 13.58L107.782 13.7796L108.082 13.9792L108.325 14.2475L108.568 14.5157L108.744 14.8753L108.921 15.2349L108.995 15.6092L109.07 15.9835L109.046 16.3876L109.022 16.7917L108.924 17.1557L108.825 17.5197L108.648 17.7853L108.471 18.0509L108.245 18.2305L108.019 18.41L107.708 18.5586L107.397 18.7071L107.067 18.7772L106.737 18.8474L106.339 18.8255L105.941 18.8037L105.65 18.7114L105.359 18.6192L105.09 18.4452L104.821 18.2713L104.633 17.9913L104.445 17.7113L104.434 17.6972L104.423 17.683L104.249 17.772L104.074 17.861L104.049 18.2575L104.023 18.654L104.064 19.3767L104.105 20.0993L104.151 20.4531L104.197 20.8069L104.287 21.3154L104.376 21.824L104.504 22.3822L104.632 22.9405L104.812 23.5984L104.992 24.2562L105.562 26.0914L106.132 27.9266L106.226 28.2472L106.32 28.5679H106.334H106.347L106.755 28.3465L107.162 28.1252L107.635 27.8527L108.107 27.5803L108.726 27.1861L109.344 26.7918L109.809 26.4534L110.274 26.1151L110.827 25.6721L111.379 25.2291L111.993 24.6321L112.608 24.0351L113.006 23.5744L113.404 23.1137L113.766 22.6236L114.129 22.1335L114.352 21.7797L114.575 21.426L114.758 21.1071L114.942 20.7883L115.092 20.4364L115.243 20.0846L115.375 19.6718L115.507 19.2591L115.599 18.7858L115.69 18.3125L115.74 17.6802L115.791 17.048L115.762 16.4067L115.734 15.7655L115.689 15.2791L115.644 14.7926L115.553 14.485L115.462 14.1773L115.316 13.888L115.169 13.5986L114.879 13.095L114.589 12.5913L114.514 12.3653L114.439 12.1393L114.439 11.9624L114.439 11.7855L114.518 11.6179L114.598 11.4503L114.868 11.1818L115.139 10.9133L115.515 10.6281L115.891 10.343L116.377 10.1041L116.863 9.86534L117.239 9.7641L117.615 9.66286L118.389 9.66369L119.163 9.66452L119.603 9.7865L120.043 9.90847L120.465 10.0935L120.888 10.2784L121.33 10.5745L121.772 10.8706L122.067 11.1626L122.363 11.4546L122.581 11.7456L122.798 12.0365L122.979 12.3753L123.159 12.7141L123.295 13.1189L123.431 13.5238L123.496 13.8486L123.561 14.1734L123.606 14.6314L123.652 15.0893V15.892V16.6946L123.585 17.2692L123.519 17.8438L123.426 18.3082L123.333 18.7725L123.184 19.2811L123.036 19.7896L122.857 20.246L122.679 20.7025L122.459 21.1526L122.239 21.6027L121.948 22.0868L121.657 22.5709L121.323 23.0293L120.989 23.4877L120.629 23.9161L120.269 24.3445L119.758 24.8531L119.247 25.3616L118.74 25.7918L118.234 26.2219L117.748 26.6004L117.261 26.9788L116.554 27.458L115.846 27.9371L115.072 28.4006L114.299 28.8641L113.498 29.2896L112.697 29.715L111.839 30.1199L110.982 30.5249L110.053 30.9314L109.125 31.3379L108.383 31.6397L107.642 31.9415L107.665 32.1451L107.688 32.3487L107.864 33.9407L108.039 35.5327L108.09 36.2624L108.14 36.9921L108.114 37.6775L108.088 38.363L108.019 38.8886L107.95 39.4142L107.839 39.9385L107.728 40.4627L107.602 40.8722L107.476 41.2816L107.318 41.6915L107.159 42.1014L106.909 42.5912L106.658 43.081L106.407 43.4637L106.155 43.8465L105.823 44.2445L105.49 44.6425L105.162 44.9521L104.834 45.2616L104.503 45.5091L104.172 45.7566L103.882 45.9386L103.593 46.1206L103.086 46.3635L102.58 46.6065L102.115 46.761L101.651 46.9156L101.098 47.026L100.545 47.1363L100.037 47.1828L99.5283 47.2292L99.064 47.2233L98.5996 47.2174L98.183 47.1804ZM97.3091 41.0866L97.8189 40.9579L98.239 40.7784L98.6591 40.5989L98.9967 40.3994L99.3342 40.1998L99.5861 40.0054L99.838 39.8111L100.238 39.3966L100.637 38.9822L100.889 38.6031L101.14 38.2241L101.383 37.7187L101.626 37.2133L101.779 36.746L101.932 36.2787L101.979 35.9357L102.027 35.5928V34.7557V33.9187H102.007H101.988L100.768 34.513L99.5484 35.1073L99.1404 35.3393L98.7325 35.5713L98.2018 35.9239L97.6711 36.2765L97.1847 36.6372L96.6982 36.9979L96.3002 37.3305L95.9022 37.6631L95.5632 37.9809L95.2242 38.2986L95.0591 38.5473L94.894 38.7961L94.8121 39.0589L94.7303 39.3217V39.5349V39.7482L94.811 40.0064L94.8916 40.2646L95.0089 40.4501L95.1263 40.6355L95.2833 40.7925L95.4402 40.9494L95.627 41.0449L95.8138 41.1403L95.9244 41.174L96.0349 41.2078L96.4171 41.2116L96.7994 41.2154L97.3091 41.0866ZM61.7193 30.5097L61.9797 30.4616L62.2256 30.3374L62.4716 30.2133L62.692 30.0315L62.9125 29.8497L63.3275 29.3967L63.7425 28.9437L64.1677 28.413L64.5929 27.8824L64.9076 27.418L65.2223 26.9537L65.5216 26.4256L65.8209 25.8974L65.9958 25.519L66.1707 25.1406L66.3384 24.7205L66.5062 24.3004L66.6475 23.8582L66.7888 23.4159L66.8962 22.9617L67.0036 22.5075L67.0914 21.9667L67.1792 21.4259L67.2186 20.8594L67.2579 20.2928L67.2187 19.9307L67.1794 19.5686L67.0233 19.2496L66.8671 18.9307L66.6773 18.7751L66.4874 18.6195L66.2698 18.5194L66.0522 18.4193L65.6542 18.419L65.2562 18.4187L64.9688 18.556L64.6814 18.6933L64.3992 18.9068L64.1171 19.1203L63.6115 19.6064L63.1059 20.0924L62.7634 20.4938L62.4209 20.8952L62.2196 21.1605L62.0183 21.4258L61.7541 21.8238L61.49 22.2218L61.2437 22.6641L60.9974 23.1063L60.7997 23.5485L60.6019 23.9907L60.4457 24.4108L60.2895 24.8309L60.1757 25.2068L60.062 25.5827L59.9537 26.0692L59.8454 26.5556L59.77 27.0421L59.6946 27.5285L59.7204 28.1697L59.7462 28.8109L59.7963 29.0763L59.8464 29.3416L59.9762 29.6149L60.106 29.8883L60.3099 30.0678L60.5137 30.2472L60.7469 30.3613L60.98 30.4753L61.1945 30.5113L61.4089 30.5473L61.4339 30.5525L61.459 30.5577L61.7193 30.5097ZM87.2482 25.0064L87.4767 24.9385L87.8642 24.6767L88.2518 24.4148L88.5717 24.1224L88.8917 23.8299L89.1832 23.4681L89.4747 23.1064L89.7105 22.7084L89.9464 22.3104L90.122 21.9114L90.2975 21.5124L90.4315 21.0933L90.5655 20.6742L90.6863 20.1284L90.8072 19.5827L90.7578 19.2334L90.7084 18.8841L90.6184 18.7077L90.5284 18.5312L90.3983 18.464L90.2683 18.3967H90.0905H89.9127L89.6792 18.5014L89.4458 18.6061L89.0478 18.8706L88.6498 19.1351L88.2973 19.4415L87.9447 19.748L87.6394 20.1005L87.334 20.453L87.1135 20.7791L86.893 21.1051L86.659 21.5751L86.425 22.045L86.2702 22.5094L86.1154 22.9737L86.0173 23.4329L85.9192 23.8921L85.946 24.118L85.9727 24.3438L86.1106 24.6239L86.2485 24.904L86.3878 24.989L86.5271 25.0739L86.7734 25.0741L87.0196 25.0742L87.2482 25.0064ZM33.1509 45.3251L32.8414 45.2829L32.4876 45.1922L32.1338 45.1015L31.7358 44.9435L31.3378 44.7855L30.9007 44.5669L30.4635 44.3484L30.0605 44.1012L29.6574 43.8541L29.1643 43.4863L28.6713 43.1185L28.2557 42.7086L27.8402 42.2988L27.571 41.9597L27.3018 41.6206L27.06 41.2521L26.8182 40.8837L26.3531 40.0214L25.8879 39.159L25.202 37.8324L24.5161 36.5057L23.0481 33.5649L21.58 30.6242L20.8648 29.2424L20.1496 27.8606L20.1275 27.8608L20.1054 27.8609L19.4641 29.1736L18.8229 30.4864L18.3656 31.3291L17.9083 32.1718L17.4623 32.9236L17.0164 33.6754L16.4517 34.5156L15.8869 35.3558L15.508 35.8423L15.1292 36.3287L14.6618 36.8683L14.1944 37.4078L13.5843 38.0012L12.9742 38.5947L12.5598 38.9261L12.1454 39.2576L11.745 39.5256L11.3446 39.7936L10.8826 40.0378L10.4207 40.282L10.0014 40.4437L9.58202 40.6054L9.31591 40.6863L9.0498 40.7673L8.78446 40.8346L8.51913 40.9019L8.12163 40.971L7.72413 41.04L7.08875 41.0852L6.45337 41.1303L5.74951 41.0836L5.04566 41.0368L4.40434 40.9282L3.76302 40.8195L3.36734 40.687L2.97167 40.5544L2.69407 40.4143L2.41646 40.2743L2.0848 40.0517L1.75313 39.8291L1.44017 39.5161L1.12721 39.2032L0.892123 38.8531L0.657035 38.503L0.487312 38.1408L0.317593 37.7786L0.206372 37.3632L0.0951521 36.9478L0.047576 36.4724L0 35.997L0.0482592 35.5143L0.0965185 35.0316L0.181705 34.6985L0.266891 34.3654L0.405039 34.0204L0.543187 33.6754L0.677388 33.4408L0.811589 33.2062L1.06513 32.8659L1.31866 32.5256L1.90396 31.8954L2.48927 31.2653H2.52042H2.55156L2.6459 31.3313L2.74023 31.3974L2.89664 31.6771L3.05306 31.9568L3.26193 32.2412L3.47079 32.5256L3.73652 32.803L4.00224 33.0803L4.23114 33.2323L4.46005 33.3842L4.68106 33.4713L4.90207 33.5584L5.21297 33.6015L5.52387 33.6446L5.89383 33.6035L6.2638 33.5625L6.59546 33.4704L6.92713 33.3782L7.32513 33.2231L7.72313 33.0681L8.29802 32.7903L8.87291 32.5126L9.35577 32.2185L9.83864 31.9244L10.3508 31.5406L10.8629 31.1569L11.4764 30.5588L12.0899 29.9607L12.4632 29.4964L12.8364 29.032L13.1369 28.5898L13.4373 28.1476L13.7812 27.5506L14.125 26.9536L14.585 26.0868L15.045 25.22L15.5252 24.2073L16.0055 23.1947L16.3682 22.3545L16.7308 21.5143L17.129 20.5193L17.5272 19.5243L17.8544 18.6498L18.1815 17.7754L18.5388 16.7704L18.8961 15.7654L19.3595 14.3945L19.8228 13.0236L20.1052 12.4487L20.3877 11.8738L20.7999 11.1884L21.212 10.5029L21.524 10.0828L21.8359 9.66271L22.0939 9.38427L22.3519 9.10584L22.7309 8.8214L23.1099 8.53695L23.3657 8.40062L23.6214 8.26429L23.9356 8.15746L24.2497 8.05062L24.6241 8.00079L24.9986 7.95096L25.3568 8.00334L25.7151 8.05571L25.9943 8.15709L26.2736 8.25846L26.5256 8.40781L26.7775 8.55715L27.0961 8.85675L27.4146 9.15634L27.6347 9.47585L27.8549 9.79537L27.9767 10.037L28.0986 10.2787L28.2016 10.5523L28.3046 10.826L27.9727 11.1005L27.6408 11.3751L27.2808 11.735L26.9208 12.0949L26.5865 12.5152L26.2522 12.9354L25.9775 13.3604L25.7027 13.7854L25.3732 14.4216L25.0437 15.0578L24.7701 15.6933L24.4965 16.3288L23.8559 18.015L23.2153 19.7012L22.9808 20.3424L22.7464 20.9836L22.2364 22.465L21.7265 23.9465L21.7119 24.0123L21.6974 24.0782L21.8079 24.0675L21.9185 24.0568L23.4662 23.9246L25.014 23.7924L25.5447 23.7237L26.0754 23.655L26.6281 23.5421L27.1809 23.4292L27.7936 23.2535L28.4063 23.0777L28.9434 22.8783L29.4805 22.6789L30.1974 22.3262L30.9143 21.9736L31.502 21.5829L32.0896 21.1922L32.5107 20.839L32.9318 20.4859L33.4039 19.9933L33.876 19.5006L34.2015 19.0685L34.5271 18.6363L34.7757 18.2344L35.0243 17.8325L35.2869 17.3075L35.5496 16.7825L35.7518 16.2739L35.954 15.7654L36.1347 15.1684L36.3155 14.5714L36.467 13.8196L36.6185 13.0678L36.6681 12.4184L36.7176 11.769L36.669 11.1146L36.6204 10.4603L36.5097 9.91346L36.399 9.36666L36.2405 8.87346L36.0821 8.38027L35.851 7.89382L35.62 7.40737L35.43 7.09782L35.2401 6.78827L34.9631 6.43449L34.686 6.08071L34.2501 5.65613L33.8142 5.23155L33.4475 4.96104L33.0807 4.69053L32.6352 4.43827L32.1897 4.18601L31.5973 3.94857L31.005 3.71114L30.3312 3.54066L29.6574 3.37019L29.1709 3.30091L28.6845 3.23163L28.0654 3.1799L27.4462 3.12816L26.6945 3.1551L25.9427 3.18205L25.4784 3.2516L25.014 3.32114L24.5276 3.43526L24.0411 3.54938L23.5326 3.72441L23.024 3.89942L22.3607 4.2235L21.6974 4.54759L21.2994 4.79967L20.9015 5.05176L20.4814 5.36724L20.0612 5.68271L19.5495 6.19127L19.0378 6.69982L18.746 7.07744L18.4542 7.45506L18.2217 7.82922L17.9891 8.20338L17.7284 8.74737L17.4677 9.29137L17.2758 9.87504L17.0838 10.4587L16.9706 10.9956L16.8574 11.5325L16.7878 12.0791L16.7183 12.6256L16.6916 13.5375L16.6649 14.4495L16.2403 14.4718L15.8158 14.4941L15.3515 14.4568L14.8871 14.4195L14.4459 14.3075L14.0048 14.1955L13.5615 13.9772L13.1182 13.759L12.8398 13.5313L12.5614 13.3037L12.3212 13.0125L12.081 12.7213L11.9051 12.3639L11.7291 12.0065L11.6277 11.6527L11.5263 11.2989L11.5277 10.4366L11.5291 9.57427L11.6303 9.10993L11.7314 8.6456L11.9298 8.0486L12.1281 7.4516L12.4318 6.83249L12.7356 6.21338L13.0095 5.79326L13.2835 5.37316L13.5834 4.99726L13.8833 4.62138L14.4073 4.10942L14.9314 3.59746L15.382 3.26244L15.8327 2.92743L16.2444 2.67272L16.656 2.41801L17.1646 2.15927L17.6732 1.90052L18.247 1.67425L18.8208 1.44798L19.4189 1.25083L20.0169 1.05368L20.5697 0.901157L21.1225 0.748632L21.7858 0.597684L22.4492 0.446741L23.1125 0.336077L23.7758 0.225409L24.3728 0.157434L24.9698 0.0894586L25.9095 0.0447293L26.8493 0L27.7852 0.0447251L28.7211 0.0894502L29.2998 0.155933L29.8785 0.222415L30.4313 0.313274L30.984 0.404133L31.6474 0.554056L32.3107 0.703979L32.9298 0.880104L33.5489 1.05623L34.1459 1.26137L34.7429 1.46652L35.3178 1.70109L35.8927 1.93568L36.5191 2.22427L37.1454 2.51285L37.6025 2.76561L38.0596 3.01837L38.4927 3.30359L38.9257 3.5888L39.3771 3.94626L39.8285 4.3037L40.316 4.79536L40.8035 5.28701L41.1844 5.79442L41.5653 6.30182L41.8214 6.72194L42.0776 7.14204L42.2856 7.58427L42.4937 8.02649L42.6545 8.45806L42.8152 8.88963L42.9427 9.38673L43.0701 9.88383L43.1399 10.3039L43.2097 10.724L43.2609 11.2547L43.3121 11.7854L43.286 12.5372L43.2598 13.2889L43.1887 13.7975L43.1175 14.306L43.0283 14.7262L42.9391 15.1463L42.786 15.6942L42.633 16.2422L42.4294 16.7777L42.2258 17.3132L41.9743 17.8659L41.7228 18.4187L41.4021 18.9936L41.0815 19.5685L40.6692 20.1876L40.2568 20.8067L39.8693 21.2932L39.4818 21.7796L38.7707 22.4872L38.0596 23.1947L37.551 23.589L37.0425 23.9833L36.4897 24.3459L35.9369 24.7085L35.362 25.0229L34.7872 25.3373L34.1902 25.5984L33.5932 25.8596L32.9962 26.0814L32.3992 26.3033L31.6253 26.5249L30.8514 26.7465L30.1438 26.9037L29.4363 27.0608L28.5076 27.2142L27.5789 27.3676L26.805 27.4874L26.0312 27.6071L26.0142 27.6216L25.9972 27.6361L26.719 28.71L27.4408 29.7838L27.8374 30.3366L28.234 30.8894L28.9642 31.7959L29.6943 32.7025L30.4319 33.5869L31.1696 34.4714L31.8276 35.2232L32.4856 35.9749L33.2605 36.7517L34.0354 37.5285L34.4334 37.7964L34.8314 38.0643L35.2294 38.2633L35.6274 38.4623L35.959 38.5824L36.2907 38.7025L36.755 38.813L37.2194 38.9234L38.0596 38.9457L38.8998 38.9679L39.3415 38.9007L39.7831 38.8335L39.8058 38.856L39.8285 38.8786L39.8429 39.4439L39.8574 40.0092L39.7861 40.4226L39.7147 40.8359L39.5822 41.2314L39.4497 41.6269L39.2422 42.0291L39.0346 42.4314L38.7149 42.8561L38.3952 43.2808L38.036 43.6187L37.6769 43.9566L37.2182 44.2633L36.7595 44.57L36.4146 44.7341L36.0696 44.8982L35.6301 45.0466L35.1906 45.195L34.8341 45.2634L34.4776 45.3319L33.969 45.3495L33.4605 45.3672L33.1509 45.3251ZM51.481 12.1565L51.1494 12.119L50.7735 12.0033L50.3976 11.8877L50.1101 11.7374L49.8227 11.5871L49.5131 11.3516L49.2036 11.116L48.9264 10.7874L48.6491 10.4588L48.4322 10.0166L48.2152 9.57438L48.1445 9.27979L48.0737 8.98521L48.0467 8.63409L48.0196 8.28297L48.0733 7.91577L48.127 7.54857L48.2395 7.23481L48.3519 6.92105L48.5273 6.61929L48.7027 6.31754L48.9963 6.00638L49.2898 5.69522L49.5602 5.50228L49.8305 5.30935L50.1583 5.15406L50.486 4.99878L50.8398 4.90289L51.1936 4.80699L51.7906 4.80575L52.3876 4.8045L52.6855 4.87801L52.9834 4.95152L53.3297 5.08505L53.676 5.21857L53.9825 5.42182L54.2891 5.62508L54.5898 5.91923L54.8904 6.21339L55.1048 6.54645L55.3191 6.87951L55.4289 7.14345L55.5388 7.40739L55.6183 7.71695L55.6978 8.0265L55.6993 8.55716L55.7008 9.08783L55.6429 9.35316L55.5851 9.6185L55.4723 9.90374L55.3594 10.189L55.2081 10.4472L55.0568 10.7054L54.7856 10.9953L54.5144 11.2852L54.247 11.4747L53.9796 11.6643L53.7585 11.7749L53.5374 11.8856L53.1768 11.9993L52.8163 12.1129L52.3651 12.1592L51.9139 12.2055L51.8633 12.1998L51.8127 12.194L51.481 12.1565ZM52.7766 11.2111L53.0294 11.1452L53.2938 11.0118L53.5581 10.8783L53.7932 10.6432L54.0283 10.4081L54.1538 10.1941L54.2792 9.98009L54.2014 9.92318L54.1235 9.86627L53.7479 9.73036L53.3723 9.59445L53.0721 9.54297L52.772 9.4915L52.5928 9.54517L52.4137 9.59884L52.2813 9.71026L52.1488 9.82169L52.0336 10.0653L51.9183 10.309L51.8333 10.6935L51.7483 11.0779L51.7473 11.1774L51.7463 11.2769H52.135H52.5237L52.7766 11.2111ZM50.6013 10.3853L50.7385 9.97238L50.7594 9.57438L50.7802 9.17638L50.6773 8.97797L50.5745 8.77956L50.3976 8.6577L50.2207 8.53584L49.889 8.45173L49.5574 8.36761L49.2519 8.33492L48.9464 8.30225L48.9744 8.63433L49.0025 8.96641L49.1189 9.29251L49.2352 9.6186L49.326 9.77338L49.4167 9.92816L49.5971 10.1671L49.7776 10.4061L50.0855 10.6653L50.3934 10.9244L50.4287 10.8613L50.464 10.7982L50.6013 10.3853ZM52.203 9.02668L52.5424 8.67798V8.62692V8.57585L52.4565 8.4076L52.3707 8.23934L52.2125 8.10044L52.0543 7.96154L51.9379 7.93233L51.8215 7.90311L51.6688 7.98531L51.5162 8.06752L51.3857 8.22395L51.2552 8.38038L51.2801 8.51305L51.3051 8.64571L51.5545 9.01054L51.804 9.37538H51.8339H51.8637L52.203 9.02668ZM54.7288 8.34364L54.7025 7.99734L54.6401 7.75772L54.5777 7.5181L54.4163 7.19746L54.2548 6.87682L53.9403 6.56365L53.6258 6.25049L53.3243 6.0828L53.0229 5.91513L52.7052 5.80279L52.3876 5.69045L51.9232 5.68704L51.4589 5.68363L51.2157 5.74277L50.9725 5.80191L50.5622 5.99824L50.1519 6.19456L49.8718 6.46936L49.5918 6.74416L49.4751 6.97485L49.3583 7.20555V7.2227V7.23986L50.4307 7.26415L51.5031 7.28844L51.8569 7.36284L52.2107 7.43723L52.4318 7.52897L52.6529 7.6207L52.9846 7.8149L53.3162 8.0091L54.0013 8.49731L54.6864 8.98552L54.7207 8.83773L54.755 8.68993L54.7288 8.34364Z" fill="white"/>
</svg>
