<svg width="59" height="55" viewBox="0 0 59 55" fill="none" xmlns="http://www.w3.org/2000/svg">
<mask id="mask0_343_179" style="mask-type:luminance" maskUnits="userSpaceOnUse" x="0" y="0" width="59" height="55">
<path d="M59 0H0V55H59V0Z" fill="white"/>
</mask>
<g mask="url(#mask0_343_179)">
<path d="M49.9471 9.99287C46.1217 8.35516 42.0846 7.18696 37.9369 6.51751C37.8993 6.51163 37.8607 6.51674 37.8264 6.53214C37.792 6.54754 37.7637 6.57245 37.7452 6.60351C37.2252 7.46287 36.65 8.58694 36.248 9.46694C31.7773 8.83496 27.2299 8.83496 22.7592 9.46694C22.3127 8.4858 21.8054 7.52971 21.2399 6.60351C21.2213 6.57245 21.193 6.54754 21.1587 6.53214C21.1243 6.51674 21.0857 6.51163 21.0482 6.51751C16.8997 7.18444 12.8619 8.35316 9.03798 9.99287C9.00508 10.0043 8.97759 10.0262 8.96052 10.0547C1.31264 20.7075 -0.785546 31.0991 0.243265 41.36C0.25064 41.4105 0.276452 41.4529 0.320702 41.4872C4.77509 44.5611 9.75611 46.9089 15.0522 48.4309C15.0896 48.4419 15.1298 48.4416 15.167 48.4298C15.2041 48.4181 15.2362 48.3956 15.2587 48.3657C16.3969 46.9219 17.4024 45.3991 18.2752 43.7972C18.2933 43.7642 18.2995 43.7266 18.2929 43.6901C18.2862 43.6536 18.267 43.62 18.2382 43.5944L18.1719 43.5566C16.5839 42.9858 15.0454 42.3021 13.5699 41.5113C13.5287 41.4896 13.4981 41.4538 13.4844 41.4116C13.4706 41.3694 13.4749 41.3238 13.4962 41.2844L13.5515 41.2191C13.8636 41.0014 14.1685 40.778 14.466 40.5488C14.492 40.5293 14.5232 40.5167 14.5564 40.5124C14.5895 40.5082 14.6233 40.5124 14.654 40.5247C24.3116 44.6359 34.7657 44.6359 44.3052 40.5247C44.3369 40.5111 44.372 40.5061 44.4067 40.5104C44.4412 40.5146 44.4739 40.528 44.5007 40.5488C44.7981 40.778 45.1029 41.0014 45.4152 41.2191C45.4411 41.2357 45.4621 41.2581 45.4761 41.2844C45.4901 41.3106 45.4966 41.3398 45.4952 41.369C45.4937 41.3983 45.4842 41.4267 45.4676 41.4516C45.451 41.4766 45.4279 41.4971 45.4004 41.5113C43.9313 42.3146 42.3903 42.9978 40.7947 43.5532C40.7693 43.5618 40.7462 43.5754 40.7271 43.5933C40.7079 43.6111 40.6933 43.6326 40.6841 43.6563C40.6751 43.6791 40.6714 43.7036 40.6734 43.7279C40.6752 43.7522 40.6827 43.7758 40.6952 43.7972C41.5802 45.3957 42.5942 46.9219 43.7078 48.3657C43.7303 48.3956 43.7625 48.4181 43.7996 48.4298C43.8367 48.4416 43.8769 48.4419 43.9143 48.4309C49.2209 46.9173 54.2107 44.5689 58.668 41.4872C58.6902 41.4727 58.7086 41.4537 58.722 41.4317C58.7353 41.4097 58.7434 41.3853 58.7455 41.36C59.9771 29.4972 56.6842 19.1916 50.0208 10.0582C50.015 10.0426 50.0053 10.0285 49.9924 10.0171C49.9797 10.0057 49.9641 9.99746 49.9471 9.99287ZM19.717 35.1107C16.8075 35.1107 14.4143 32.6219 14.4143 29.5694C14.4143 26.5169 16.7632 24.0247 19.717 24.0247C22.6927 24.0247 25.0638 26.5341 25.0196 29.5694C25.0196 32.6219 22.6707 35.1107 19.717 35.1107ZM39.3197 35.1107C36.414 35.1107 34.0171 32.6219 34.0171 29.5694C34.0171 26.5169 36.366 24.0247 39.3197 24.0247C42.2955 24.0247 44.6702 26.5341 44.6223 29.5694C44.6223 32.6219 42.2955 35.1107 39.3197 35.1107Z" fill="white"/>
</g>
</svg>
