<svg width="55" height="55" viewBox="0 0 55 55" fill="none" xmlns="http://www.w3.org/2000/svg">
<path d="M22.9166 29.7917C23.9008 31.1074 25.1564 32.196 26.5983 32.9838C28.0402 33.7716 29.6347 34.2401 31.2735 34.3574C32.9124 34.4748 34.5574 34.2383 36.0968 33.6641C37.6363 33.0898 39.0342 32.1912 40.1958 31.0292L47.0708 24.1542C49.158 21.9931 50.313 19.0987 50.2869 16.0944C50.2608 13.09 49.0557 10.2161 46.9312 8.09166C44.8068 5.9672 41.9329 4.76214 38.9285 4.73603C35.9242 4.70992 33.0298 5.86486 30.8687 7.95209L26.9271 11.8708M32.0833 25.2083C31.0991 23.8926 29.8435 22.804 28.4016 22.0162C26.9597 21.2284 25.3653 20.7599 23.7264 20.6426C22.0875 20.5252 20.4426 20.7617 18.9031 21.3359C17.3637 21.9102 15.9657 22.8088 14.8041 23.9708L7.92914 30.8458C5.84191 33.0069 4.68697 35.9013 4.71308 38.9056C4.73919 41.91 5.94425 44.7839 8.06872 46.9083C10.1932 49.0328 13.0671 50.2379 16.0714 50.264C19.0758 50.2901 21.9702 49.1352 24.1312 47.0479L28.05 43.1292" stroke="#F3F3F3" stroke-width="4" stroke-linecap="round" stroke-linejoin="round"/>
</svg>
