<svg width="55" height="56" viewBox="0 0 55 56" fill="none" xmlns="http://www.w3.org/2000/svg">
<path d="M40.1041 15.1666H40.127M16.0416 4.66663H38.9583C45.2865 4.66663 50.4166 9.88997 50.4166 16.3333V39.6666C50.4166 46.1099 45.2865 51.3333 38.9583 51.3333H16.0416C9.71332 51.3333 4.58325 46.1099 4.58325 39.6666V16.3333C4.58325 9.88997 9.71332 4.66663 16.0416 4.66663ZM36.6666 26.53C36.9494 28.4719 36.6236 30.4551 35.7356 32.1977C34.8476 33.9402 33.4425 35.3533 31.7203 36.2359C29.9981 37.1185 28.0464 37.4257 26.1428 37.1138C24.2392 36.8019 22.4806 35.8868 21.1173 34.4987C19.7539 33.1105 18.8551 31.32 18.5488 29.3818C18.2425 27.4436 18.5442 25.4564 19.4111 23.7028C20.2779 21.9493 21.6658 20.5187 23.3772 19.6145C25.0886 18.7104 27.0364 18.3787 28.9437 18.6666C30.8891 18.9604 32.6902 19.8834 34.0809 21.2993C35.4716 22.7153 36.3781 24.5491 36.6666 26.53Z" stroke="#F5F5F5" stroke-width="4" stroke-linecap="round" stroke-linejoin="round"/>
</svg>
